<svg width="20" height="20" viewBox="0 0 20 20" fill="none" xmlns="http://www.w3.org/2000/svg">
<g clip-path="url(#clip0_0_3130)">
<path d="M16.2396 15.7027C15.9965 15.7027 15.7602 15.5766 15.6299 15.351L9.99942 5.59861L4.36881 15.351C4.17457 15.6873 3.74443 15.8025 3.40828 15.6084C3.07198 15.4142 2.95678 14.9842 3.15102 14.6479L9.99942 2.78613L16.8478 14.6479C17.0419 14.9842 16.9267 15.4142 16.5904 15.6084C16.4798 15.6724 16.3588 15.7027 16.2396 15.7027Z" fill="white"/>
<path d="M14.2968 4.29684C14.2968 6.66987 12.373 8.59368 9.99997 8.59368C7.62679 8.59368 5.70312 6.66987 5.70312 4.29684C5.70312 1.92381 7.62679 0 9.99997 0C12.373 0 14.2968 1.92381 14.2968 4.29684Z" fill="white"/>
<path d="M9.99997 0.781244C12.2412 0.781244 14.0807 2.49754 14.2782 4.68746C14.2898 4.55868 14.2968 4.42868 14.2968 4.29684C14.2968 1.92366 12.373 0 9.99997 0C7.62679 0 5.70312 1.92366 5.70312 4.29684C5.70312 4.42868 5.70999 4.55868 5.72159 4.68746C5.91904 2.49754 7.75862 0.781244 9.99997 0.781244Z" fill="white"/>
<path d="M12.555 6.52731C12.5515 6.52639 12.5479 6.52563 12.5444 6.52487L10.9616 6.16797H9.03791L7.45498 6.52487C7.45147 6.52563 7.44796 6.52639 7.44445 6.52731C7.13333 6.59964 6.86905 6.78549 6.68945 7.0368C7.47772 7.98802 8.66789 8.5941 9.99982 8.5941C11.3316 8.5941 12.5218 7.98802 13.3099 7.03664C13.1303 6.78549 12.866 6.59964 12.555 6.52731Z" fill="white"/>
<path d="M10.7815 6.12212V4.92188H9.22034V6.12212L9.03906 6.16714V6.27105C9.03906 6.8022 9.46966 7.2328 10.001 7.2328C10.5321 7.2328 10.9627 6.8022 10.9627 6.27105V6.16714L10.7815 6.12212Z" fill="white"/>
<path d="M11.1529 1.62554C11.1039 1.43603 10.8948 1.16747 10.1026 1.16747C8.87855 1.16747 8.70429 1.34875 8.37867 1.03579C8.10371 0.771664 7.94243 2.04271 8.30879 2.4463C8.15422 3.01804 8.27797 3.5907 8.27797 3.5907H11.7215C11.7215 3.5907 12.0105 2.25313 11.1529 1.62554Z" fill="white"/>
<path d="M8.42602 1.0786C8.41031 1.06532 8.39459 1.05128 8.37842 1.03572C8.28641 0.947373 8.20737 1.03114 8.15625 1.19655C8.2446 1.15443 8.33432 1.11461 8.42602 1.0786Z" fill="white"/>
<path d="M8.6252 3.65082C8.6252 3.65082 8.47689 3.37891 8.17996 3.37891C7.88287 3.37891 7.67261 4.68429 8.6252 4.4667V3.65082Z" fill="white"/>
<path d="M11.375 3.65082C11.375 3.65082 11.5233 3.37891 11.8202 3.37891C12.1173 3.37891 12.3276 4.68429 11.375 4.4667V3.65082Z" fill="white"/>
<path d="M10.0004 1.90137C7.72564 1.90137 8.16051 5.63211 10.0004 5.63211C11.8401 5.63211 12.275 1.90137 10.0004 1.90137Z" fill="white"/>
<path d="M10.0005 1.69849C10.0005 1.69849 8.45312 1.48029 8.45312 3.4656C8.45312 3.4656 8.64798 2.64499 9.0949 2.4213C9.30319 2.31708 9.37933 2.58121 10.0005 2.58121C10.6215 2.58121 10.6978 2.31708 10.906 2.4213C11.3529 2.64499 11.5477 3.4656 11.5477 3.4656C11.5477 1.48029 10.0005 1.69849 10.0005 1.69849Z" fill="white"/>
<path d="M8.59368 15.7031C8.59368 18.0761 6.66987 19.9999 4.29684 19.9999C1.92366 19.9999 0 18.0761 0 15.7031C0 13.3301 1.92366 11.4062 4.29684 11.4062C6.66987 11.4062 8.59368 13.3301 8.59368 15.7031Z" fill="white"/>
<path d="M4.29684 19.2187C2.0555 19.2187 0.21591 17.5024 0.018463 15.3125C0.00686642 15.4413 0 15.5713 0 15.7031C0 18.0763 1.92366 20 4.29684 20C6.66987 20 8.59368 18.0763 8.59368 15.7031C8.59368 15.5713 8.58666 15.4413 8.57507 15.3125C8.37762 17.5024 6.53803 19.2187 4.29684 19.2187Z" fill="white"/>
<path d="M6.2492 13.4182C6.15063 12.3749 4.50483 12.0992 3.97215 12.2728C3.43947 12.4465 3.45809 12.6864 3.45809 12.6864C3.45809 12.6864 2.39013 12.596 2.33093 13.6855C2.27157 14.775 2.44171 15.1046 2.44171 15.1046C2.4472 15.1752 2.45391 15.2465 2.462 15.3183H6.11203C6.11386 15.3028 6.11538 15.2872 6.11706 15.2716L6.15078 15.4009C6.15063 15.4009 6.34289 14.4095 6.2492 13.4182Z" fill="white"/>
<path d="M6.85176 17.9326C6.84825 17.9317 6.84459 17.9309 6.84108 17.9301L5.2583 17.5732H3.33464L1.75186 17.9301C1.74835 17.9309 1.74468 17.9317 1.74117 17.9326C1.4302 18.0049 1.16592 18.1908 0.986328 18.4421C1.77444 19.3933 2.96461 19.9994 4.29654 19.9994C5.62832 19.9994 6.8185 19.3933 7.60661 18.4419C7.42701 18.1908 7.16273 18.0049 6.85176 17.9326Z" fill="white"/>
<path d="M5.07637 17.5284V16.3281H3.51526V17.5284L3.33398 17.5734V17.6773C3.33398 18.2085 3.76458 18.6392 4.29589 18.6392C4.82705 18.6392 5.25764 18.2085 5.25764 17.6773V17.5734L5.07637 17.5284Z" fill="white"/>
<path d="M2.92208 15.0571C2.92208 15.0571 2.77377 14.7852 2.47683 14.7852C2.17975 14.7852 1.96948 16.0905 2.92208 15.8729V15.0571Z" fill="white"/>
<path d="M5.66992 15.0571C5.66992 15.0571 5.81824 14.7852 6.11517 14.7852C6.41226 14.7852 6.62252 16.0905 5.66992 15.8729V15.0571Z" fill="white"/>
<path d="M4.29728 13.3076C2.02252 13.3076 2.45739 17.0384 4.29728 17.0384C6.13702 17.0384 6.57189 13.3076 4.29728 13.3076Z" fill="white"/>
<path d="M2.73413 14.8435C2.73413 14.8435 2.97674 14.7802 3.12475 14.4529C3.38659 13.8732 3.58129 13.7977 3.58129 13.7977C3.58129 13.7977 3.82375 14.4814 4.75804 14.7374C5.69233 14.9938 5.8591 14.8435 5.8591 14.8435L6.07532 13.9335L4.84746 12.9453L3.31716 13.1324L2.51562 14.0824L2.73413 14.8435Z" fill="white"/>
<path d="M4.60843 19.987C4.66062 19.9833 4.7128 19.9792 4.76437 19.9737C4.79413 19.9705 4.82373 19.9661 4.85333 19.9623C4.90033 19.9562 4.94717 19.9499 4.99371 19.9423C5.02454 19.9372 5.05505 19.9316 5.08572 19.9258C5.13074 19.9174 5.17544 19.9087 5.21985 19.8989C5.25036 19.8922 5.28058 19.8852 5.31079 19.8779C5.35519 19.8671 5.39929 19.8556 5.44308 19.8436C5.47222 19.8355 5.50137 19.8274 5.53036 19.8187C5.57537 19.8053 5.61993 19.7906 5.66448 19.7758C5.69103 19.7668 5.71789 19.7581 5.74429 19.7486C5.79311 19.7312 5.84118 19.7125 5.88924 19.6933C5.9103 19.6849 5.93182 19.6769 5.95287 19.6682C6.02016 19.64 6.08684 19.6104 6.15246 19.5788C6.15352 19.5784 6.15474 19.5779 6.15597 19.5773C6.22387 19.5446 6.2907 19.5102 6.35662 19.474C6.37188 19.4657 6.38668 19.4566 6.40163 19.448C6.45107 19.4203 6.5002 19.3919 6.54842 19.3621C6.56886 19.3495 6.58885 19.3362 6.60915 19.3232C6.65126 19.2962 6.69307 19.2689 6.73412 19.2405C6.75578 19.2257 6.77699 19.2103 6.79836 19.1949C6.83727 19.167 6.87587 19.1386 6.91386 19.1093C6.93507 19.093 6.95613 19.0765 6.97688 19.0597C7.01427 19.0298 7.05119 18.9993 7.08751 18.9682C7.10734 18.9511 7.12733 18.9341 7.14686 18.9169C7.18394 18.8839 7.22026 18.8501 7.25627 18.816C7.27366 18.7994 7.29136 18.7831 7.30845 18.7663C7.34736 18.728 7.3852 18.6886 7.42259 18.649C7.43556 18.6352 7.44899 18.6218 7.4618 18.6079C7.51124 18.5539 7.55961 18.499 7.6063 18.4425C7.60645 18.4423 7.60661 18.4422 7.60676 18.442C7.50147 18.2948 7.36644 18.1709 7.21064 18.0781C6.44481 18.7858 5.42126 19.2183 4.29654 19.2183C3.17167 19.2183 2.14812 18.7858 1.38244 18.0783C1.2265 18.1709 1.09161 18.2948 0.986328 18.4422C1.03317 18.4987 1.08169 18.5539 1.13129 18.6079C1.14395 18.6218 1.15723 18.6351 1.1702 18.6488C1.20773 18.6886 1.24573 18.728 1.28464 18.7663C1.30188 18.7831 1.31927 18.7994 1.33667 18.8159C1.37268 18.8501 1.40915 18.8839 1.44622 18.917C1.46576 18.9343 1.48559 18.9512 1.50543 18.9682C1.54174 18.9993 1.57882 19.03 1.61621 19.0599C1.63711 19.0765 1.65801 19.093 1.67907 19.1093C1.71722 19.1386 1.75582 19.1671 1.79489 19.1951C1.81625 19.2103 1.8373 19.2257 1.85897 19.2405C1.90002 19.2689 1.94183 19.2962 1.98409 19.3232C2.00423 19.3362 2.02438 19.3495 2.04482 19.3621C2.09304 19.3919 2.14217 19.4204 2.19176 19.4482C2.20672 19.4567 2.22136 19.4657 2.23662 19.474C2.30254 19.5102 2.36922 19.5446 2.43728 19.5774C2.4385 19.5779 2.43956 19.5784 2.44078 19.579C2.5064 19.6104 2.57292 19.64 2.64037 19.6682C2.66127 19.6769 2.68279 19.6849 2.70384 19.6933C2.75191 19.7125 2.79997 19.7312 2.8488 19.7488C2.8752 19.7583 2.9019 19.7668 2.9286 19.7758C2.97301 19.7908 3.01771 19.8054 3.06288 19.8188C3.09172 19.8275 3.12086 19.8356 3.15001 19.8437C3.1938 19.8558 3.2379 19.8674 3.2823 19.878C3.31236 19.8854 3.34272 19.8924 3.37324 19.8991C3.41764 19.9089 3.46235 19.9176 3.50737 19.9259C3.53804 19.9317 3.56855 19.9374 3.59938 19.9424C3.64591 19.9499 3.69276 19.9563 3.73976 19.9624C3.76936 19.9662 3.79881 19.9705 3.82871 19.9739C3.88029 19.9794 3.93247 19.9833 3.98466 19.9871C4.01029 19.989 4.03547 19.9916 4.0611 19.9929C4.13907 19.9971 4.2175 19.9995 4.29654 19.9995C4.37543 19.9995 4.45386 19.9971 4.53183 19.9928C4.55762 19.9914 4.58295 19.9888 4.60843 19.987Z" fill="white"/>
<path d="M19.9999 15.7031C19.9999 18.0761 18.0761 19.9999 15.7031 19.9999C13.3299 19.9999 11.4062 18.0761 11.4062 15.7031C11.4062 13.3301 13.3299 11.4062 15.7031 11.4062C18.0761 11.4062 19.9999 13.3301 19.9999 15.7031Z" fill="white"/>
<path d="M15.7031 19.2187C13.4617 19.2187 11.6222 17.5024 11.4247 15.3125C11.4131 15.4413 11.4062 15.5713 11.4062 15.7031C11.4062 18.0763 13.3299 20 15.7031 20C18.0761 20 19.9999 18.0763 19.9999 15.7031C19.9999 15.5713 19.9929 15.4413 19.9813 15.3125C19.7839 17.5024 17.9443 19.2187 15.7031 19.2187Z" fill="white"/>
<path d="M17.8879 18.7111C18.1174 18.663 18.2445 18.3665 18.2259 18.1076C18.2073 17.8488 18.0854 17.6156 17.9859 17.3807C17.8864 17.1457 17.8061 16.8776 17.8757 16.6296C17.9648 16.311 18.2848 16.0867 18.2819 15.7532C18.2795 15.4797 18.0596 15.2777 17.9537 15.031C17.8618 14.8174 17.8577 14.572 17.8547 14.3353C17.8516 14.0987 17.8463 13.8532 17.7529 13.6405C17.6593 13.4279 17.4511 13.2581 17.2425 13.3045C17.188 13.046 17.1232 12.7876 16.9976 12.562C16.8721 12.3361 16.6631 12.1507 16.4249 12.1384C16.1086 12.1221 15.8459 12.399 15.5428 12.5014C15.261 12.5965 14.9589 12.5362 14.6647 12.5188C14.3705 12.5015 14.0433 12.5444 13.8451 12.7869C13.5825 13.1082 13.6614 13.625 13.4801 14.0099C13.3207 14.3485 12.9664 14.5709 12.907 14.9475C12.8193 15.504 13.4332 15.9521 13.3947 16.5155C13.3781 16.7578 13.242 16.9665 13.1632 17.1931C12.9644 17.7652 13.1812 18.4787 13.6512 18.7991L17.8879 18.7111Z" fill="white"/>
<path d="M18.2582 17.9326C18.2547 17.9317 18.251 17.9309 18.2475 17.9301L16.6647 17.5732H14.741L13.1581 17.9301C13.1546 17.9309 13.1511 17.9317 13.1476 17.9326C12.8365 18.0049 12.5722 18.1908 12.3926 18.4421C13.1808 19.3933 14.371 19.9994 15.7029 19.9994C17.0347 19.9994 18.2249 19.3933 19.013 18.4419C18.8334 18.1908 18.5691 18.0049 18.2582 17.9326Z" fill="white"/>
<path d="M16.0147 19.987C16.0669 19.9833 16.1191 19.9792 16.1706 19.9737C16.2004 19.9705 16.23 19.9661 16.2596 19.9623C16.3066 19.9562 16.3534 19.9499 16.4 19.9423C16.4308 19.9372 16.4613 19.9316 16.492 19.9258C16.537 19.9174 16.5817 19.9087 16.6261 19.8989C16.6566 19.8922 16.6868 19.8852 16.717 19.8779C16.7614 19.8671 16.8055 19.8556 16.8493 19.8436C16.8785 19.8355 16.9076 19.8274 16.9366 19.8187C16.9816 19.8053 17.0262 19.7906 17.0707 19.7758C17.0973 19.7668 17.1241 19.7581 17.1505 19.7486C17.1994 19.7312 17.2474 19.7125 17.2955 19.6933C17.3166 19.6849 17.3381 19.6769 17.3591 19.6682C17.4264 19.64 17.4931 19.6104 17.5587 19.5788C17.5598 19.5784 17.561 19.5779 17.5622 19.5773C17.6301 19.5446 17.6969 19.5102 17.7629 19.474C17.7781 19.4657 17.7929 19.4566 17.8079 19.448C17.8573 19.4203 17.9065 19.3919 17.9547 19.3621C17.9751 19.3495 17.9951 19.3362 18.0154 19.3232C18.0575 19.2962 18.0993 19.2689 18.1404 19.2405C18.162 19.2257 18.1832 19.2103 18.2046 19.1949C18.2435 19.167 18.2821 19.1386 18.3201 19.1093C18.3413 19.093 18.3624 19.0765 18.3831 19.0597C18.4205 19.0298 18.4574 18.9993 18.4938 18.9682C18.5136 18.9511 18.5336 18.9341 18.5531 18.9169C18.5902 18.8839 18.6265 18.8501 18.6625 18.816C18.6799 18.7994 18.6976 18.7831 18.7147 18.7663C18.7536 18.728 18.7915 18.6886 18.8288 18.649C18.8418 18.6352 18.8552 18.6218 18.8681 18.6079C18.9175 18.5539 18.9659 18.499 19.0126 18.4425L19.013 18.442C18.9077 18.2948 18.7727 18.1709 18.6169 18.0781C17.8511 18.7858 16.8275 19.2183 15.7028 19.2183C14.5779 19.2183 13.5544 18.7858 12.7887 18.0783C12.6327 18.1709 12.4979 18.2948 12.3926 18.4422C12.4394 18.4987 12.4879 18.5539 12.5375 18.6079C12.5502 18.6218 12.5635 18.6351 12.5764 18.6488C12.614 18.6886 12.652 18.728 12.6909 18.7663C12.7081 18.7831 12.7255 18.7994 12.7429 18.8159C12.7789 18.8501 12.8154 18.8839 12.8525 18.917C12.872 18.9343 12.8918 18.9512 12.9117 18.9682C12.948 18.9993 12.9851 19.03 13.0225 19.0599C13.0434 19.0765 13.0643 19.093 13.0853 19.1093C13.1235 19.1386 13.1621 19.1671 13.2011 19.1951C13.2225 19.2103 13.2436 19.2257 13.2652 19.2405C13.3063 19.2689 13.3481 19.2962 13.3903 19.3232C13.4105 19.3362 13.4306 19.3495 13.4511 19.3621C13.4993 19.3919 13.5484 19.4204 13.598 19.4482C13.613 19.4567 13.6276 19.4657 13.6429 19.474C13.7088 19.5102 13.7755 19.5446 13.8435 19.5774C13.8447 19.5779 13.8458 19.5784 13.847 19.579C13.9126 19.6104 13.9792 19.64 14.0466 19.6682C14.0675 19.6769 14.089 19.6849 14.1101 19.6933C14.1582 19.7125 14.2062 19.7312 14.2551 19.7488C14.2814 19.7583 14.3082 19.7668 14.3349 19.7758C14.3793 19.7908 14.424 19.8054 14.4691 19.8188C14.498 19.8275 14.5271 19.8356 14.5563 19.8437C14.6 19.8558 14.6441 19.8674 14.6886 19.878C14.7186 19.8854 14.749 19.8924 14.7795 19.8991C14.8239 19.9089 14.8686 19.9176 14.9136 19.9259C14.9443 19.9317 14.9748 19.9374 15.0056 19.9424C15.0522 19.9499 15.099 19.9563 15.146 19.9624C15.1756 19.9662 15.2051 19.9705 15.235 19.9739C15.2865 19.9794 15.3387 19.9833 15.3909 19.9871C15.4165 19.989 15.4417 19.9916 15.4674 19.9929C15.5453 19.9972 15.6238 19.9996 15.7028 19.9996C15.7818 19.9996 15.8603 19.9972 15.9382 19.9929C15.9639 19.9914 15.9892 19.9888 16.0147 19.987Z" fill="white"/>
<path d="M16.4846 17.5284V16.3281H14.9235V17.5284L14.7422 17.5734V17.6773C14.7422 18.2085 15.1728 18.6392 15.7041 18.6392C16.2352 18.6392 16.6658 18.2085 16.6658 17.6773V17.5734L16.4846 17.5284Z" fill="white"/>
<path d="M14.3283 15.0571C14.3283 15.0571 14.18 14.7852 13.8831 14.7852C13.586 14.7852 13.3757 16.0905 14.3283 15.8729V15.0571Z" fill="white"/>
<path d="M17.0781 15.0571C17.0781 15.0571 17.2264 14.7852 17.5234 14.7852C17.8205 14.7852 18.0307 16.0905 17.0781 15.8729V15.0571Z" fill="white"/>
<path d="M15.7035 13.3076C13.4288 13.3076 13.8636 17.0384 15.7035 17.0384C17.5433 17.0384 17.9781 13.3076 15.7035 13.3076Z" fill="white"/>
<path d="M14.1608 14.8758C14.1608 14.8758 14.375 15 14.7656 14.5312C15.1562 14.0625 15.3906 13.9062 15.8594 13.9062C16.3281 13.9062 16.568 13.631 16.568 13.631C16.568 13.631 16.8365 14.6251 17.2464 14.8907L17.2656 14.1406L16.6406 13.2031H14.6875L14.1406 14.1406L14.1608 14.8758Z" fill="white"/>
</g>
<defs>
<clipPath id="clip0_0_3130">
<rect width="20" height="20" fill="white"/>
</clipPath>
</defs>
</svg>
