<svg width="22" height="22" viewBox="0 0 22 22" fill="none" xmlns="http://www.w3.org/2000/svg">
<g clip-path="url(#clip0_0_3245)">
<path d="M16.4994 21.0837H5.49935C5.25623 21.0837 5.02308 20.9871 4.85117 20.8152C4.67926 20.6433 4.58268 20.4101 4.58268 20.167C4.58268 19.9239 4.67926 19.6907 4.85117 19.5188C5.02308 19.3469 5.25623 19.2503 5.49935 19.2503H16.4994C16.7425 19.2503 16.9756 19.3469 17.1475 19.5188C17.3194 19.6907 17.416 19.9239 17.416 20.167C17.416 20.4101 17.3194 20.6433 17.1475 20.8152C16.9756 20.9871 16.7425 21.0837 16.4994 21.0837ZM21.0827 5.50033V12.8337C21.0827 13.4356 20.9641 14.0315 20.7338 14.5876C20.5035 15.1437 20.1659 15.649 19.7403 16.0746C19.3147 16.5002 18.8094 16.8378 18.2533 17.0681C17.6972 17.2984 17.1012 17.417 16.4994 17.417H5.49935C4.89746 17.417 4.30146 17.2984 3.74538 17.0681C3.18931 16.8378 2.68404 16.5002 2.25844 16.0746C1.3989 15.215 0.916016 14.0492 0.916016 12.8337V5.50033C0.916016 4.28475 1.3989 3.11896 2.25844 2.25942C3.11798 1.39988 4.28377 0.916992 5.49935 0.916992H16.4994C17.1012 0.916992 17.6972 1.03554 18.2533 1.26588C18.8094 1.49621 19.3147 1.83382 19.7403 2.25942C20.1659 2.68502 20.5035 3.19028 20.7338 3.74636C20.9641 4.30244 21.0827 4.89843 21.0827 5.50033ZM4.58268 7.33366C4.58268 7.57677 4.67926 7.80993 4.85117 7.98184C5.02308 8.15375 5.25623 8.25033 5.49935 8.25033H10.9993C11.2425 8.25033 11.4756 8.15375 11.6475 7.98184C11.8194 7.80993 11.916 7.57677 11.916 7.33366C11.916 7.09054 11.8194 6.85739 11.6475 6.68548C11.4756 6.51357 11.2425 6.41699 10.9993 6.41699H5.49935C5.25623 6.41699 5.02308 6.51357 4.85117 6.68548C4.67926 6.85739 4.58268 7.09054 4.58268 7.33366ZM17.416 11.0003C17.416 10.7572 17.3194 10.5241 17.1475 10.3521C16.9756 10.1802 16.7425 10.0837 16.4994 10.0837H5.49935C5.25623 10.0837 5.02308 10.1802 4.85117 10.3521C4.67926 10.5241 4.58268 10.7572 4.58268 11.0003C4.58268 11.2434 4.67926 11.4766 4.85117 11.6485C5.02308 11.8204 5.25623 11.917 5.49935 11.917H16.4994C16.7425 11.917 16.9756 11.8204 17.1475 11.6485C17.3194 11.4766 17.416 11.2434 17.416 11.0003Z" fill="white"/>
</g>
<defs>
<clipPath id="clip0_0_3245">
<rect width="22" height="22" fill="white"/>
</clipPath>
</defs>
</svg>
