<svg width="21" height="21" viewBox="0 0 21 21" fill="none" xmlns="http://www.w3.org/2000/svg">
<g clip-path="url(#clip0_0_4469)">
<path d="M8.5918 6.17907C8.5918 7.7483 11.7132 8.56958 14.7964 8.56958C17.8796 8.56958 21.0009 7.7483 21.0009 6.17907C21.0009 3.04057 8.5918 3.04057 8.5918 6.17907Z" fill="#FBB315"/>
<path d="M20.7707 8.49454C20.6285 8.40863 20.45 8.40255 20.3022 8.48009C19.0168 9.1543 17.0615 9.52595 14.7964 9.52595C12.5312 9.52595 10.5759 9.1543 9.29048 8.48009C9.14273 8.40259 8.9642 8.40863 8.82205 8.49454C8.67896 8.5809 8.5918 8.73639 8.5918 8.90355V9.04781C8.5918 10.617 11.7132 11.4383 14.7964 11.4383C17.8796 11.4383 21.0009 10.617 21.0009 9.04781V8.90355C21.0009 8.73639 20.9137 8.5809 20.7707 8.49454Z" fill="#FBB315"/>
<path d="M2.86328 15.7406C2.86328 17.3099 5.98465 18.1311 9.06785 18.1311C12.151 18.1311 15.2724 17.3098 15.2724 15.7406C15.2724 12.6021 2.86328 12.6021 2.86328 15.7406Z" fill="#FBB315"/>
<path d="M15.0422 18.0559C14.8995 17.9704 14.7215 17.9639 14.5737 18.0415C13.2883 18.7157 11.333 19.0873 9.06785 19.0873C6.80266 19.0873 4.84742 18.7157 3.56196 18.0415C3.41422 17.964 3.23569 17.9705 3.09354 18.0559C2.95044 18.1423 2.86328 18.2978 2.86328 18.4649V18.6092C2.86328 20.1784 5.98465 20.9997 9.06785 20.9997C12.151 20.9997 15.2724 20.1784 15.2724 18.6092V18.4649C15.2724 18.2978 15.1852 18.1423 15.0422 18.0559Z" fill="#FBB315"/>
<path d="M6.20457 4.74443C6.84915 4.74443 7.49378 4.70801 8.12065 4.63565C8.22271 4.62398 8.31829 4.57963 8.39332 4.50912C9.11621 3.82744 10.3513 3.3246 11.965 3.05519C12.1356 3.02669 12.2777 2.90812 12.336 2.74471C12.3854 2.60699 12.4091 2.47907 12.4091 2.35392C12.4091 -0.784631 0 -0.784631 0 2.35387C0 3.92315 3.12137 4.74443 6.20457 4.74443Z" fill="#FBB315"/>
<path d="M6.20456 7.61318C6.59979 7.61318 6.98526 7.59962 7.35861 7.57488C7.50918 7.56459 7.64573 7.48432 7.72775 7.35729C7.80932 7.23075 7.82655 7.07249 7.77438 6.93101C7.68162 6.6812 7.63643 6.43515 7.63875 6.15317C7.63875 6.02243 7.58515 5.89732 7.49052 5.80721C7.39637 5.71709 7.26353 5.66246 7.1386 5.67553C6.82678 5.69047 6.51496 5.70072 6.20456 5.70072C3.93938 5.70072 1.98414 5.32907 0.698683 4.65486C0.550937 4.57737 0.372407 4.58345 0.230254 4.66931C0.087162 4.75576 0 4.91125 0 5.07841V5.22267C0 6.79194 3.12137 7.61318 6.20456 7.61318Z" fill="#FBB315"/>
<path d="M6.20456 10.4813C6.59979 10.4813 6.98526 10.4678 7.35861 10.443C7.50918 10.4328 7.64573 10.3525 7.72775 10.2255C7.80932 10.0989 7.82655 9.94065 7.77438 9.79917C7.68162 9.54936 7.63643 9.30331 7.63643 9.02134C7.63643 8.89059 7.58282 8.76549 7.48819 8.67537C7.39405 8.58526 7.26353 8.53389 7.13628 8.54369C6.82539 8.55863 6.51451 8.56888 6.20456 8.56888C3.93938 8.56888 1.98414 8.19723 0.698683 7.52303C0.550937 7.44553 0.372407 7.45161 0.230254 7.53748C0.087162 7.62392 0 7.77941 0 7.94653V8.09079C0 9.66006 3.12137 10.4813 6.20456 10.4813Z" fill="#FBB315"/>
<path d="M20.7699 14.2314C20.6268 14.1441 20.4492 14.1394 20.3015 14.2169C19.4033 14.688 18.1397 15.0172 16.6478 15.168C16.3961 15.1937 16.2167 15.4878 16.2274 15.7409C16.2274 15.9832 16.1882 16.2148 16.1081 16.4478C16.0549 16.6023 16.0843 16.7737 16.1859 16.9016C16.2773 17.016 16.4148 17.0818 16.5593 17.0818C16.576 17.0818 16.5933 17.0809 16.6105 17.079C19.359 16.7821 21.0001 15.9244 21.0001 14.7847V14.6404C21.0001 14.4732 20.9129 14.3178 20.7699 14.2314Z" fill="#FBB315"/>
<path d="M9.06904 12.3946L9.38552 12.4001C9.38834 12.4001 9.39111 12.4001 9.39393 12.4001C9.61671 12.4001 9.81014 12.2456 9.85954 12.0276C9.90943 11.8063 9.79757 11.5807 9.59152 11.4869L9.48946 11.4411C9.4214 11.4112 9.3529 11.3813 9.28949 11.3482C9.14081 11.2702 8.96465 11.2772 8.82156 11.3636C8.67891 11.4499 8.5918 11.605 8.5918 11.7721V11.9163C8.59175 12.1807 8.80523 12.3946 9.06904 12.3946Z" fill="#FBB315"/>
<path d="M20.7707 11.3627C20.6286 11.2768 20.4501 11.2707 20.3023 11.3483C19.0169 12.0225 17.0616 12.3941 14.7964 12.3941L14.4813 12.388C14.2889 12.3717 14.0586 12.5412 14.0097 12.762C13.9603 12.9829 14.0721 13.2079 14.2777 13.3013C14.7946 13.5366 15.2169 13.8163 15.5324 14.1323C15.6223 14.222 15.7435 14.2719 15.8699 14.2719C15.8797 14.2719 15.8899 14.2715 15.9001 14.271C18.2529 14.1216 21.001 13.4152 21.001 11.916V11.7717C21.001 11.6046 20.9138 11.4491 20.7707 11.3627Z" fill="#FBB315"/>
<path d="M3.99155 13.202C4.0512 13.202 4.11089 13.1908 4.16726 13.1684C5.0081 12.8355 6.03346 12.6062 7.21547 12.4872C7.46716 12.462 7.64708 12.1435 7.63634 11.8905C7.63634 11.7597 7.58274 11.6346 7.4881 11.5445C7.39396 11.4544 7.26344 11.4063 7.13619 11.4128C6.8253 11.4278 6.51442 11.438 6.20447 11.438C3.93929 11.438 1.98405 11.0664 0.698594 10.3922C0.550848 10.3147 0.372318 10.3208 0.230165 10.4066C0.087162 10.493 0 10.6485 0 10.8156V10.9599C0 12.0165 1.46726 12.8532 3.92538 13.1973C3.9473 13.2005 3.96967 13.202 3.99155 13.202Z" fill="#FBB315"/>
</g>
<defs>
<clipPath id="clip0_0_4469">
<rect width="21" height="21" fill="white"/>
</clipPath>
</defs>
</svg>
