<svg width="22" height="20" viewBox="0 0 22 20" fill="none" xmlns="http://www.w3.org/2000/svg">
<path d="M21.2885 12.4702C20.9889 9.07166 17.9816 6.54993 14.5813 6.85038C14.0069 6.90104 13.4532 7.03322 12.9281 7.23181C12.9268 7.23179 12.9257 7.23105 12.9244 7.23105H12.0925C11.903 7.23105 11.7488 7.0768 11.7488 6.8873V5.04619C11.7488 4.85669 11.903 4.70244 12.0925 4.70244H18.1575C18.347 4.70244 18.5012 4.85669 18.5012 5.04619V6.8873C18.5012 7.07714 18.6551 7.23105 18.845 7.23105C19.0348 7.23105 19.1887 7.07714 19.1887 6.8873V5.04619C19.1887 4.47752 18.7261 4.01494 18.1575 4.01494H17.4066C17.4452 3.90689 17.47 3.79231 17.47 3.67119V1.83008C17.47 1.26141 17.0074 0.798828 16.4387 0.798828H10.3738C9.8051 0.798828 9.34252 1.26141 9.34252 1.83008V3.67119C9.34252 4.23986 9.8051 4.70244 10.3738 4.70244H11.1246C11.0861 4.81049 11.0613 4.92507 11.0613 5.04619V6.8873C11.0613 7.32408 11.3352 7.69599 11.7194 7.84608C11.2247 8.17307 10.7739 8.57263 10.3823 9.03993C10.341 9.08928 10.3061 9.14238 10.2665 9.19274C10.0763 8.98173 9.80365 8.84792 9.50247 8.84792H8.74893C8.78942 8.73745 8.81497 8.61977 8.81497 8.49544V6.65433C8.81497 6.08566 8.35239 5.62308 7.78372 5.62308H1.71875C1.15008 5.62308 0.6875 6.08566 0.6875 6.65433V8.49544C0.6875 9.06411 1.15008 9.52669 1.71875 9.52669H2.47232C2.43183 9.63715 2.40625 9.75486 2.40625 9.87917V11.7203C2.40625 11.8447 2.43182 11.9624 2.47236 12.0729H1.71875C1.15008 12.0729 0.6875 12.5355 0.6875 13.1042V14.9453C0.6875 15.514 1.15008 15.9765 1.71791 15.9765L2.47169 15.9785C2.43166 16.0884 2.40625 16.2054 2.40625 16.329V18.1701C2.40625 18.7388 2.86883 19.2014 3.4375 19.2014H9.50247C10.0711 19.2014 10.5337 18.7388 10.5337 18.1701V17.1527C10.7257 17.3649 10.9279 17.5695 11.1511 17.7565C12.2753 18.6985 13.6652 19.202 15.1144 19.202C15.2984 19.202 15.4832 19.1938 15.6687 19.1775C19.0674 18.8778 21.5884 15.8688 21.2885 12.4702ZM10.03 3.67119V1.83008C10.03 1.64058 10.1843 1.48633 10.3738 1.48633H16.4387C16.6282 1.48633 16.7825 1.64058 16.7825 1.83008V3.67119C16.7825 3.86069 16.6282 4.01494 16.4387 4.01494H10.3738C10.1843 4.01494 10.03 3.86069 10.03 3.67119ZM9.83672 9.81329C9.41534 10.5063 9.13821 11.2677 9.01582 12.064H3.4375C3.248 12.064 3.09375 11.9098 3.09375 11.7203V9.87917C3.09375 9.68967 3.248 9.53542 3.4375 9.53542H9.50247C9.66711 9.53542 9.80535 9.65423 9.83672 9.81329ZM1.375 8.49544V6.65433C1.375 6.46483 1.52925 6.31058 1.71875 6.31058H7.78372C7.97322 6.31058 8.12747 6.46483 8.12747 6.65433V8.49544C8.12747 8.68494 7.97322 8.83919 7.78372 8.83919H1.71875C1.52925 8.83919 1.375 8.68494 1.375 8.49544ZM9.84622 18.1701C9.84622 18.3596 9.69197 18.5139 9.50247 18.5139H3.4375C3.248 18.5139 3.09375 18.3596 3.09375 18.1701V16.329C3.09375 16.1395 3.248 15.9853 3.4375 15.9853H5.05605C5.24555 15.9853 5.39929 15.832 5.3998 15.6424C5.4003 15.4525 5.24672 15.2983 5.05689 15.2978L1.71875 15.289C1.52925 15.289 1.375 15.1348 1.375 14.9453V13.1042C1.375 12.9147 1.52925 12.7604 1.71875 12.7604H7.78372C7.97322 12.7604 8.12747 12.9147 8.12747 13.1042V14.9453C8.12747 15.1348 7.97322 15.289 7.78372 15.289H6.54166C6.35182 15.289 6.19791 15.443 6.19791 15.6328C6.19791 15.8226 6.35182 15.9765 6.54166 15.9765L9.50247 15.9853C9.69197 15.9853 9.84622 16.1395 9.84622 16.329V18.1701H9.84622ZM8.74892 15.2978C8.78942 15.1873 8.81497 15.0696 8.81497 14.9453V13.1042C8.81497 12.9798 8.78942 12.862 8.74888 12.7515H8.94849C8.93769 13.0185 8.9376 13.287 8.9615 13.5575C9.01494 14.1634 9.15547 14.7476 9.37304 15.2978H8.74892ZM15.6082 18.4927C14.1463 18.6223 12.7188 18.1731 11.5927 17.2297C10.4666 16.286 9.77539 14.9606 9.64632 13.4971C9.51724 12.0336 9.96573 10.6076 10.9092 9.48154C11.8528 8.35545 13.1783 7.66426 14.6418 7.53519C14.8053 7.52075 14.9677 7.5137 15.129 7.5137C17.9453 7.5137 20.3517 9.67322 20.6037 12.5306C20.8702 15.5515 18.6293 18.2262 15.6082 18.4927Z" fill="#E0E0E0"/>
<path d="M15.125 8.54492C12.6608 8.54492 10.6562 10.5495 10.6562 13.0137C10.6562 15.4778 12.6608 17.4824 15.125 17.4824C17.5892 17.4824 19.5938 15.4778 19.5938 13.0137C19.5938 10.5495 17.5892 8.54492 15.125 8.54492ZM15.125 16.7949C13.04 16.7949 11.3438 15.0987 11.3438 13.0137C11.3438 10.9287 13.04 9.23242 15.125 9.23242C17.21 9.23242 18.9062 10.9287 18.9062 13.0137C18.9062 15.0987 17.21 16.7949 15.125 16.7949Z" fill="#E0E0E0"/>
<path d="M15.1257 11.024C15.5795 11.024 15.9486 11.3931 15.9486 11.847C15.9486 12.0368 16.1026 12.1907 16.2924 12.1907C16.4822 12.1907 16.6361 12.0368 16.6361 11.847C16.6361 11.1328 16.1365 10.5361 15.4694 10.3796V10.0918C15.4694 9.90196 15.3155 9.74805 15.1257 9.74805C14.9358 9.74805 14.7819 9.90196 14.7819 10.0918V10.3796C14.1149 10.5361 13.6152 11.1328 13.6152 11.847C13.6152 12.6798 14.2928 13.3574 15.1257 13.3574C15.5795 13.3574 15.9486 13.7265 15.9486 14.1804C15.9486 14.6342 15.5795 15.0035 15.1257 15.0035C14.6718 15.0035 14.3027 14.6342 14.3027 14.1804C14.3027 13.9905 14.1488 13.8366 13.959 13.8366C13.7691 13.8366 13.6152 13.9905 13.6152 14.1804C13.6152 14.8947 14.1149 15.4914 14.7819 15.6479V15.9355C14.7819 16.1254 14.9358 16.2793 15.1257 16.2793C15.3155 16.2793 15.4694 16.1254 15.4694 15.9355V15.6479C16.1365 15.4914 16.6361 14.8947 16.6361 14.1804C16.6361 13.3475 15.9585 12.6699 15.1257 12.6699C14.6718 12.6699 14.3027 12.3008 14.3027 11.847C14.3027 11.3931 14.6718 11.024 15.1257 11.024Z" fill="#14163D"/>
</svg>
