<svg width="22" height="22" viewBox="0 0 22 22" fill="none" xmlns="http://www.w3.org/2000/svg">
<path d="M21.9427 8.4397C21.7986 7.99423 21.4035 7.67783 20.9361 7.6357L14.5862 7.05913L12.0754 1.18216C11.8902 0.751457 11.4686 0.472656 11.0001 0.472656C10.5316 0.472656 10.11 0.751457 9.92486 1.18317L7.41398 7.05913L1.06317 7.6357C0.59654 7.67883 0.202426 7.99423 0.0575701 8.4397C-0.0872853 8.88518 0.0464919 9.37379 0.399483 9.6818L5.19918 13.8912L3.78386 20.1257C3.6803 20.5841 3.85822 21.0579 4.23857 21.3328C4.44301 21.4806 4.6822 21.5557 4.9234 21.5557C5.13137 21.5557 5.33766 21.4997 5.5228 21.3889L11.0001 18.1153L16.4754 21.3889C16.8761 21.6299 17.3811 21.6079 17.7606 21.3328C18.1412 21.0571 18.3189 20.5831 18.2154 20.1257L16.8 13.8912L21.5997 9.68264C21.9527 9.37379 22.0875 8.88602 21.9427 8.4397Z" fill="#BDBDBD"/>
</svg>
