<svg width="22" height="22" viewBox="0 0 22 22" fill="none" xmlns="http://www.w3.org/2000/svg">
<g clip-path="url(#clip0_0_3239)">
<path d="M17.875 8.25V2.72938C17.8745 2.188 17.6592 1.66896 17.2763 1.28615C16.8935 0.903347 16.3745 0.688046 15.8331 0.6875H2.72938C2.188 0.688046 1.66896 0.903347 1.28615 1.28615C0.903347 1.66896 0.688046 2.188 0.6875 2.72938V12.4438C0.688228 12.9851 0.903587 13.504 1.28636 13.8868C1.66912 14.2695 2.18806 14.4849 2.72938 14.4856H4.07687V17.1875C4.07708 17.3211 4.1162 17.4517 4.18946 17.5635C4.26271 17.6752 4.36693 17.7631 4.48938 17.8166C4.57595 17.855 4.66963 17.875 4.76437 17.875C4.93646 17.875 5.1023 17.8105 5.22913 17.6942L8.25 14.9263V11.1994C8.25182 10.4177 8.56314 9.66858 9.11586 9.11586C9.66858 8.56314 10.4177 8.25182 11.1994 8.25H17.875Z" fill="white"/>
<path d="M19.7381 9.625H11.1994C10.7819 9.62536 10.3817 9.79135 10.0865 10.0865C9.79135 10.3817 9.62536 10.7819 9.625 11.1994V17.5312C9.62536 17.9487 9.79135 18.3489 10.0865 18.6441C10.3817 18.9393 10.7819 19.1053 11.1994 19.1056H15.7369L17.9527 21.1324C18.0798 21.2486 18.2459 21.3129 18.4181 21.3125C18.5129 21.3125 18.6065 21.2925 18.6931 21.2541C18.8156 21.2006 18.9198 21.1127 18.993 21.001C19.0663 20.8892 19.1054 20.7586 19.1056 20.625V19.1056H19.7381C20.1556 19.1053 20.5558 18.9393 20.851 18.6441C21.1461 18.3489 21.3121 17.9487 21.3125 17.5312V11.1994C21.3121 10.7819 21.1461 10.3817 20.851 10.0865C20.5558 9.79135 20.1556 9.62536 19.7381 9.625Z" fill="white"/>
</g>
<defs>
<clipPath id="clip0_0_3239">
<rect width="22" height="22" fill="white"/>
</clipPath>
</defs>
</svg>
