<svg width="46" height="42" viewBox="0 0 46 42" fill="none" xmlns="http://www.w3.org/2000/svg">
<path d="M14.465 1.35829C12.2758 1.42485 10.2955 1.97794 8.59353 2.95633C6.80197 3.98554 5.32279 5.48424 4.24786 7.36989C3.12018 9.34776 2.44721 11.7362 2.33745 14.4115C2.22339 17.1886 2.71822 20.2323 3.91629 23.362C5.13708 26.5503 6.9405 29.4455 9.13024 31.8985C11.3053 34.3375 13.81 36.2813 16.4385 37.6345C18.9949 38.9515 21.6192 39.6827 24.1317 39.778C26.5369 39.8692 28.8081 39.3768 30.8061 38.279C32.6986 37.2389 34.1646 35.7536 35.2146 33.9935C36.2146 32.3167 36.8437 30.3813 37.1124 28.318C37.3705 26.3348 37.2981 24.2149 36.8967 22.0595C36.5068 19.9624 35.8003 17.8052 34.7627 15.6665C33.7619 13.6043 32.5137 11.6734 31.0461 9.91711C29.6126 8.20245 27.9928 6.68596 26.2689 5.42784C24.5091 4.14509 22.6134 3.11106 20.6656 2.40756C18.65 1.68069 16.5508 1.29503 14.465 1.35829Z" fill="url(#paint0_radial_0_4501)"/>
<path d="M0.266306 17.2117C0.504002 13.5942 1.81108 10.3521 3.76716 7.40498C3.93118 7.15777 4.54183 6.22079 4.7071 5.97461C0.616291 12.0721 2.39801 21.2597 5.75807 27.2319C6.51982 28.5856 7.38525 29.8773 8.34649 31.0954C11.6195 35.2415 16.1398 38.7295 21.249 40.1893C24.2303 41.0414 28.1569 40.8463 31.793 39.3138C24.9939 42.9068 15.3505 42.1156 9.63818 37.1711C4.39623 32.6335 0.511826 26.3021 0.241829 19.1955C0.225008 18.7398 0.22332 18.2841 0.236778 17.8281C0.243002 17.6272 0.252594 17.4264 0.265547 17.2257L0.266306 17.2117Z" fill="url(#paint1_linear_0_4501)"/>
<path d="M18.061 13.3493C21.5478 10.1481 26.8306 14.3808 28.1692 17.7672C29.1155 20.1609 29.2757 23.5644 26.7607 25.1245C26.7355 25.14 26.7102 25.155 26.685 25.1698L26.681 25.1723L26.6767 25.1746L26.6726 25.1771L26.6686 25.1794C26.5221 25.2641 26.3756 25.3495 26.229 25.4355C28.5212 24.1022 28.5798 21.2765 27.8334 19.005C26.8765 16.0929 24.4562 13.3198 21.3305 12.8C20.0689 12.5902 18.7179 12.8707 17.6843 13.6938L18.061 13.3493Z" fill="url(#paint2_linear_0_4501)"/>
<path d="M19.7175 18.1747C19.7617 17.5294 20.3257 16.6283 20.8952 16.251C20.3459 16.7436 20.1695 17.5939 20.2336 18.2883C20.3345 19.3808 21.0188 20.4852 21.8737 21.1493C22.6872 21.7811 23.8803 22.0294 24.8008 21.569C23.7137 22.1129 22.7849 22.4737 21.6441 21.7557C20.6759 21.146 19.958 20.0489 19.7577 18.9199C19.7141 18.6741 19.7007 18.4238 19.7175 18.1747Z" fill="url(#paint3_linear_0_4501)"/>
<path d="M13.0131 9.60733C13.3198 9.26823 13.6577 8.95918 14.0224 8.68433C15.9906 7.20137 18.5563 6.90844 20.9111 7.41809C24.5371 8.2039 27.6844 10.6673 29.8578 13.6268C31.2317 15.4977 32.2829 17.7289 32.833 19.9951C33.3584 22.16 33.3806 24.4849 32.6349 26.5832C31.8893 28.6815 30.3266 30.5262 28.2754 31.3634C29.995 30.5821 31.2726 28.9889 31.938 27.2107C32.6862 25.208 32.7805 22.895 32.3773 20.8038C32.31 20.4542 32.2289 20.1024 32.1341 19.7485C30.532 13.7823 25.1192 7.79613 18.6262 7.63887C16.4057 7.58526 14.0905 8.42112 12.5778 10.09L13.0131 9.60733Z" fill="url(#paint4_linear_0_4501)"/>
<path d="M14.4111 16.2221C14.6205 14.6688 15.2968 13.2061 16.4446 12.0352C15.5703 12.9269 15.0298 14.1233 14.8345 15.3611C14.0089 20.5947 18.3237 26.5499 23.4643 27.616C24.7368 27.88 26.1291 27.7712 27.3027 27.1693C26.01 27.807 24.5581 28.0433 23.1317 27.8482C21.7383 27.6538 20.4247 27.0591 19.2844 26.2415C18.0969 25.3899 17.0825 24.2979 16.2748 23.0784C15.4974 21.9049 14.9006 20.5985 14.5726 19.2253C14.3343 18.243 14.2795 17.2246 14.4111 16.2221Z" fill="url(#paint5_linear_0_4501)"/>
<path d="M8.32563 15.436C8.4629 12.9622 9.40182 10.4818 11.0455 8.62207C9.58199 10.403 8.83181 12.6812 8.75207 14.9706C8.49974 22.2095 13.233 29.3624 19.3985 32.4927C22.3422 33.9873 25.9914 34.6387 29.1133 33.3057C22.8776 35.97 16.0677 32.2386 12.263 27.2082C9.745 23.879 8.09071 19.6682 8.32563 15.436Z" fill="url(#paint6_linear_0_4501)"/>
<path d="M17.1271 5.55057C15.5086 5.67913 14.0693 6.17633 12.8566 6.98551C11.5967 7.82569 10.5831 9.00123 9.87477 10.4407C9.14124 11.9323 8.73928 13.6986 8.73449 15.6467C8.72919 17.648 9.14225 19.8182 10.0295 22.0361C10.9182 24.2472 12.1772 26.2884 13.7516 28.0708C15.2833 29.8071 17.0418 31.2187 18.8924 32.2349C20.7059 33.2306 22.5832 33.8332 24.4013 33.9953C26.1626 34.1526 27.8504 33.8937 29.3619 33.1927C30.8143 32.5182 31.9642 31.4971 32.8108 30.2489C33.6266 29.0454 34.164 27.6257 34.4227 26.0876C34.6735 24.5955 34.6642 22.9812 34.3899 21.3242C34.1217 19.7026 33.5971 18.024 32.8035 16.3545C32.0341 14.7385 31.0627 13.2281 29.9127 11.8602C28.8151 10.5506 27.5565 9.38687 26.1671 8.39708C24.7942 7.42428 23.3216 6.66006 21.8192 6.16489C20.2764 5.65651 18.686 5.42659 17.1271 5.55057ZM28.4962 31.2392C27.1782 31.8101 25.7167 31.9986 24.2002 31.8342C22.6415 31.6655 21.039 31.1259 19.4952 30.2591C17.9247 29.3765 16.4339 28.1653 15.1336 26.6854C13.7977 25.1665 12.7244 23.4326 11.9585 21.5559C11.1917 19.669 10.8208 17.8187 10.8013 16.1058C10.7822 14.4318 11.0991 12.9046 11.7012 11.6069C12.2853 10.347 13.1347 9.30865 14.2018 8.55561C15.2343 7.82671 16.4695 7.36635 17.8677 7.22687C19.2214 7.0912 20.6092 7.26904 21.9612 7.6979C23.282 8.11608 24.58 8.77588 25.7924 9.6247C27.0227 10.4915 28.1364 11.5148 29.1058 12.6694C30.1228 13.8765 30.9795 15.2117 31.6543 16.6414C32.3498 18.1165 32.8032 19.5971 33.027 21.0242C33.2541 22.4784 33.2468 23.89 33.0081 25.1885C32.7628 26.5218 32.2726 27.7444 31.5405 28.7708C30.7702 29.8596 29.7169 30.7136 28.4962 31.2392Z" fill="url(#paint7_linear_0_4501)"/>
<path d="M6.96999 6.70807C7.4792 6.0197 8.06639 5.39344 8.71966 4.84199C12.492 1.66343 17.7829 1.70154 22.1662 3.43271C28.7634 6.03684 33.8701 12.0721 36.1886 18.7435C38.4833 25.346 37.7013 34.3609 30.532 37.4594C31.3143 37.1441 32.2479 36.2572 32.8686 35.681C33.5396 35.0588 34.1116 34.3091 34.5976 33.5339C35.5971 31.941 36.2433 30.1242 36.5323 28.2652C37.0369 25.0213 36.5466 21.5666 35.4366 18.4937C33.1586 12.1864 28.1808 6.51118 21.9368 3.98835C19.5568 3.02698 16.9237 2.59761 14.3669 2.88115C11.3878 3.21143 8.38431 4.80211 6.57584 7.23881L6.96999 6.70807Z" fill="url(#paint8_linear_0_4501)"/>
<path d="M14.9465 0.627778C12.655 0.678591 10.5761 1.23575 8.78324 2.23853C6.89251 3.29619 5.3225 4.84774 4.17489 6.80986C2.96824 8.87258 2.23899 11.3723 2.10249 14.1799C1.96168 17.1016 2.46635 20.3084 3.71994 23.6104C4.99825 26.9778 6.89932 30.0346 9.21296 32.6225C11.5092 35.1916 14.1587 37.2345 16.9343 38.6461C19.6295 40.0162 22.3933 40.7647 25.0342 40.8399C27.5575 40.9115 29.9317 40.3678 32.0145 39.1905C33.9827 38.0777 35.5002 36.5038 36.5817 34.6486C37.61 32.8852 38.2511 30.8565 38.5181 28.7001C38.7742 26.631 38.6884 24.4234 38.263 22.1824C37.8499 20.0048 37.1106 17.7665 36.0321 15.5488C34.9922 13.4119 33.6975 11.4104 32.1767 9.58878C30.6913 7.81035 29.014 6.23517 27.2267 4.92421C25.4019 3.58658 23.4342 2.50555 21.4105 1.76369C19.3131 0.994136 17.1254 0.579761 14.9465 0.627778ZM31.121 37.1697C29.227 38.1745 27.0821 38.609 24.8185 38.4974C22.4592 38.3811 20.0017 37.6732 17.6131 36.4256C15.1607 35.1443 12.8251 33.3171 10.7956 31.0367C8.7517 28.742 7.06612 26.0393 5.91548 23.0637C4.78453 20.1392 4.30383 17.2914 4.38837 14.6865C4.47012 12.1713 5.07748 9.9183 6.11255 8.04434C7.1022 6.2527 8.4759 4.82056 10.1471 3.82692C11.7401 2.8808 13.601 2.33507 15.6661 2.25174C17.6386 2.17146 19.629 2.52003 21.5455 3.19914C23.3976 3.85639 25.2048 4.83046 26.8836 6.04996C28.5308 7.24405 30.0771 8.68788 31.446 10.3233C32.8475 11.9983 34.0377 13.8416 34.9895 15.811C35.9736 17.8519 36.6423 19.9088 37.0054 21.9057C37.3786 23.9557 37.4343 25.9681 37.1759 27.8456C36.9067 29.7956 36.294 31.6185 35.3304 33.1901C34.3208 34.8351 32.9204 36.2147 31.1202 37.1697H31.121Z" fill="url(#paint9_linear_0_4501)"/>
<path d="M1.43635 14.097C1.72048 11.316 3.0046 8.2383 4.70683 5.97461C1.67026 10.392 1.88651 15.8731 3.27434 20.9C4.0818 23.8252 5.39393 26.6064 7.08304 29.1186C8.29993 30.9285 9.71507 32.595 11.3018 34.0865C11.4966 34.2693 11.694 34.4491 11.894 34.6261C13.3101 35.8794 14.8524 36.992 16.5041 37.9091C18.2485 38.8779 20.1125 39.5882 22.04 40.0862C23.8568 40.5554 25.7493 40.8512 27.6277 40.6451C28.1112 40.5957 28.591 40.5156 29.0645 40.4053C29.1934 40.3763 29.5691 40.2915 29.6953 40.2528C28.8858 40.5346 27.9863 40.8428 27.1399 41.0122C25.3254 41.4035 23.3719 41.3374 21.5435 41.0521C19.7519 40.7726 18.0126 40.2056 16.3737 39.4317C13.7999 38.2168 11.4804 36.5047 9.46279 34.4973C7.52093 32.5649 5.86601 30.3606 4.54912 27.9524C3.1073 25.314 2.05886 22.4307 1.5986 19.4498C1.32356 17.6828 1.25417 15.8782 1.43635 14.097Z" fill="url(#paint10_linear_0_4501)"/>
<path d="M25.1263 21.2908C25.0592 21.3652 24.9853 21.4333 24.9058 21.494C24.2078 22.0276 23.1927 21.9026 22.416 21.494C21.3057 20.9097 20.4887 19.7895 20.2676 18.5469C20.1084 17.6524 20.3181 16.6 21.0781 16.1107C23.0163 14.8635 25.2631 17.3706 25.5926 19.1208C25.7352 19.8749 25.6264 20.7377 25.1263 21.2908Z" fill="url(#paint11_linear_0_4501)"/>
<path d="M19.3749 10.6298C18.4094 10.7668 17.5687 11.1288 16.8768 11.6735C16.1702 12.2307 15.6181 12.9786 15.252 13.8696C14.8783 14.7789 14.6986 15.8335 14.742 16.9771C14.7862 18.1389 15.0597 19.3848 15.5889 20.6495C16.1145 21.902 16.8369 23.0612 17.7281 24.0827C18.5959 25.0781 19.5891 25.903 20.637 26.5176C21.6731 27.1248 22.7543 27.5216 23.8146 27.6751C24.855 27.8257 25.8686 27.7409 26.7949 27.3956C27.6595 27.0765 28.4194 26.5225 28.9902 25.795C29.5345 25.104 29.9105 24.2663 30.1119 23.34C30.3094 22.431 30.339 21.4328 30.1959 20.396C30.0538 19.3734 29.7417 18.3068 29.2476 17.2413C28.7665 16.2052 28.149 15.2391 27.4119 14.3689C26.7114 13.5383 25.9035 12.8061 25.0097 12.1918C24.1341 11.5945 23.2005 11.1405 22.2562 10.8669C21.2959 10.5895 20.3183 10.4954 19.3749 10.6298ZM25.9592 25.5044C25.231 25.7557 24.4389 25.8047 23.6302 25.6733C22.8096 25.5402 21.9754 25.2224 21.1788 24.746C18.6643 23.243 16.7718 20.364 16.6222 17.393C16.5775 16.5055 16.7032 15.6831 16.979 14.9692C17.2505 14.2667 17.6663 13.6715 18.2068 13.2225C18.7367 12.7812 19.3885 12.4817 20.1409 12.3587C20.8798 12.2378 21.6494 12.2983 22.4089 12.5076C23.1911 12.7231 23.9274 13.0846 24.5999 13.5373C25.3152 14.0224 25.9613 14.6037 26.5202 15.2649C27.109 15.9586 27.6007 16.7302 27.9814 17.5584C28.3718 18.4084 28.615 19.258 28.72 20.0708C28.8265 20.8922 28.7922 21.6797 28.6244 22.3931C28.454 23.1175 28.1449 23.7676 27.7059 24.2986C27.2455 24.8554 26.6409 25.2728 25.9592 25.5044Z" fill="url(#paint12_linear_0_4501)"/>
<path d="M41.3577 1.38693C41.3931 1.10289 41.5071 0.870171 41.2432 0.75C41.4339 0.75 41.9452 0.85696 41.8521 1.40573L41.2558 4.91534L40.7637 4.89679C40.9488 3.80687 41.1338 2.71686 41.3189 1.62677C41.3312 1.55537 41.3471 1.4728 41.3577 1.38693Z" fill="url(#paint13_linear_0_4501)"/>
<path d="M41.2709 0.750329C40.9866 0.729242 40.5228 0.960438 39.8435 1.66749C38.4542 3.11259 34.8042 8.24565 35.2876 9.0744C35.3035 9.10023 35.3221 9.12425 35.3432 9.14604L41.0191 4.89585L41.6151 1.38625C41.6689 1.06943 41.5677 0.772433 41.2709 0.750329Z" fill="url(#paint14_linear_0_4501)"/>
<path d="M22.7596 18.785L25.5857 13.8438L28.6836 17.7619L22.9761 19.0812C22.9382 19.0901 22.8986 19.0876 22.8622 19.074C22.8257 19.0604 22.794 19.0364 22.771 19.0049C22.748 18.9733 22.7346 18.9357 22.7326 18.8966C22.7305 18.8576 22.7399 18.8188 22.7596 18.785Z" fill="url(#paint15_linear_0_4501)"/>
<path d="M28.5609 16.8548C28.6461 17.0215 28.9565 17.5662 28.7471 17.7321C28.7288 17.7466 28.7075 17.7568 28.6847 17.7621C28.6037 17.7809 28.5081 17.741 28.4304 17.6963C28.0093 17.4524 27.653 17.1096 27.3242 16.7494C26.7905 16.1647 26.3182 15.5261 25.9146 14.8439C25.7711 14.6008 25.6343 14.3475 25.576 14.0708C25.5601 13.9961 25.5543 13.9092 25.5881 13.8454C25.5976 13.8276 25.6103 13.8117 25.6257 13.7987C25.6989 13.7372 25.8092 13.7606 25.8972 13.7974C26.1352 13.897 26.335 14.067 26.523 14.2403C27.329 14.9808 28.0592 15.8736 28.5609 16.8548Z" fill="url(#paint16_linear_0_4501)"/>
<path d="M25.9755 14.4478C26.0136 14.6386 26.1915 14.9 26.2412 14.9846C26.4994 15.4179 26.7934 15.8287 27.1198 16.2125C27.2861 16.4112 27.4479 16.619 27.6374 16.7968C27.8168 16.9642 27.9997 17.1451 28.2258 17.2475C28.3096 17.2854 28.3651 17.2836 28.3916 17.2457C28.4181 17.2079 28.4168 17.1347 28.3838 17.029C28.2781 16.6838 28.0666 16.3779 27.8647 16.0832C27.6026 15.702 27.3147 15.3394 27.003 14.9981C26.7742 14.7468 26.5201 14.4671 26.2208 14.3017C26.1294 14.2509 26.0628 14.2389 26.0262 14.2628C25.9687 14.2979 25.9591 14.3665 25.9755 14.4478Z" fill="url(#paint17_radial_0_4501)"/>
<path d="M26.5573 16.3739C25.2717 14.7448 24.6146 13.1161 25.0897 12.7361C25.5647 12.356 26.992 13.3685 28.2777 14.9976C29.5633 16.6266 30.2204 18.2554 29.7453 18.6354C29.2702 19.0155 27.8429 18.003 26.5573 16.3739Z" fill="url(#paint18_radial_0_4501)"/>
<path d="M26.691 15.6636C26.7046 15.6834 26.7193 15.7025 26.7336 15.7223C26.8028 15.8158 26.8747 15.9106 26.9481 16.0018C27.0044 16.0732 27.0617 16.1428 27.1187 16.2106C27.1341 16.2297 27.1495 16.2477 27.1659 16.2657C27.6248 15.9156 28.0841 15.5657 28.5439 15.216L30.0218 14.0917L32.0367 12.5575L34.3806 10.7724L36.8451 8.89516L39.2228 7.08447L41.3048 5.49887L42.8829 4.29665L43.7487 3.63813L43.8496 3.55987L43.8188 2.61426L43.3702 2.95673L42.1499 3.8866L40.3472 5.26005L38.1519 6.93305L35.752 8.76229L33.3369 10.6025L31.0957 12.3098L29.2179 13.7406L27.8919 14.7508L26.691 15.6636Z" fill="url(#paint19_linear_0_4501)"/>
<path d="M43.8389 3.55987C43.7728 3.5597 43.7198 3.34606 43.7205 3.08269C43.7212 2.81932 43.7753 2.60596 43.8413 2.60613C43.9074 2.6063 43.9604 2.81995 43.9597 3.08332C43.959 3.34669 43.9049 3.56005 43.8389 3.55987Z" fill="url(#paint20_linear_0_4501)"/>
<path d="M45.006 5.97726C45.1122 6.17136 45.0531 6.415 44.957 6.61444C44.4241 7.71859 43.1402 8.27804 42.0665 8.68784C42.2058 8.63474 42.3481 8.57529 42.4887 8.50542C43.2555 8.12433 44.2096 7.35833 44.519 6.81947C44.635 6.61622 44.7004 6.35733 44.5926 6.15027C44.4473 5.8708 44.0844 5.83549 43.8086 5.77197L42.8326 5.54662L41.8001 5.30831C41.7097 5.28748 41.5813 5.15003 41.4884 5.12869L41.8738 5.06543L43.7478 5.49733C44.4665 5.664 44.8404 5.67518 45.006 5.97726Z" fill="url(#paint21_linear_0_4501)"/>
<path d="M41.489 5.12891L35.6929 9.58997C35.8476 9.74241 36.0813 9.88646 36.4795 9.87833C37.9501 9.84835 40.9864 9.15883 42.4703 8.5125C44.4322 7.65783 45.5061 6.05623 44.2851 5.77422L41.489 5.12891Z" fill="url(#paint22_linear_0_4501)"/>
<defs>
<radialGradient id="paint0_radial_0_4501" cx="0" cy="0" r="1" gradientUnits="userSpaceOnUse" gradientTransform="translate(41.1838 14.2443) rotate(180) scale(36.7338 36.9855)">
<stop offset="0.04" stop-color="#F3F8FB"/>
<stop offset="0.57" stop-color="#DFEEF0"/>
<stop offset="0.78" stop-color="#ECFCFF"/>
<stop offset="1" stop-color="#A6BBBE"/>
</radialGradient>
<linearGradient id="paint1_linear_0_4501" x1="1.70283" y1="3.62454" x2="23.0046" y2="44.5172" gradientUnits="userSpaceOnUse">
<stop stop-color="#E43E4F"/>
<stop offset="0.53" stop-color="#941919"/>
<stop offset="1" stop-color="#E43E4F"/>
</linearGradient>
<linearGradient id="paint2_linear_0_4501" x1="13.5526" y1="-2.54783" x2="34.8546" y2="38.3448" gradientUnits="userSpaceOnUse">
<stop stop-color="#C54331"/>
<stop offset="0.53" stop-color="#C40000"/>
<stop offset="1" stop-color="#C54331"/>
</linearGradient>
<linearGradient id="paint3_linear_0_4501" x1="11.1168" y1="-1.27977" x2="32.4188" y2="39.6131" gradientUnits="userSpaceOnUse">
<stop stop-color="#C54331"/>
<stop offset="0.53" stop-color="#C40000"/>
<stop offset="1" stop-color="#C54331"/>
</linearGradient>
<linearGradient id="paint4_linear_0_4501" x1="13.8579" y1="-2.70728" x2="35.1598" y2="38.1853" gradientUnits="userSpaceOnUse">
<stop stop-color="#C54331"/>
<stop offset="0.53" stop-color="#C40000"/>
<stop offset="1" stop-color="#C54331"/>
</linearGradient>
<linearGradient id="paint5_linear_0_4501" x1="8.79743" y1="-0.0701097" x2="30.0969" y2="40.8185" gradientUnits="userSpaceOnUse">
<stop stop-color="#C54331"/>
<stop offset="0.53" stop-color="#C40000"/>
<stop offset="1" stop-color="#C54331"/>
</linearGradient>
<linearGradient id="paint6_linear_0_4501" x1="5.74452" y1="1.52004" x2="27.0463" y2="42.4127" gradientUnits="userSpaceOnUse">
<stop stop-color="#C54331"/>
<stop offset="0.53" stop-color="#C40000"/>
<stop offset="1" stop-color="#C54331"/>
</linearGradient>
<linearGradient id="paint7_linear_0_4501" x1="34.8423" y1="14.2397" x2="6.24092" y2="26.0954" gradientUnits="userSpaceOnUse">
<stop stop-color="#F58C86"/>
<stop offset="0.23" stop-color="#EC6268"/>
<stop offset="0.44" stop-color="#E43E4F"/>
<stop offset="0.61" stop-color="#E43E4F"/>
<stop offset="0.69" stop-color="#E23A4A"/>
<stop offset="0.78" stop-color="#DD303D"/>
<stop offset="0.88" stop-color="#D41E26"/>
<stop offset="0.98" stop-color="#C70607"/>
<stop offset="1" stop-color="#C40000"/>
</linearGradient>
<linearGradient id="paint8_linear_0_4501" x1="13.547" y1="-2.54586" x2="34.8488" y2="38.347" gradientUnits="userSpaceOnUse">
<stop stop-color="#C54331"/>
<stop offset="0.53" stop-color="#C40000"/>
<stop offset="1" stop-color="#C54331"/>
</linearGradient>
<linearGradient id="paint9_linear_0_4501" x1="34.9867" y1="14.5895" x2="6.38505" y2="26.4454" gradientUnits="userSpaceOnUse">
<stop stop-color="#F58C86"/>
<stop offset="0.23" stop-color="#EC6268"/>
<stop offset="0.44" stop-color="#E43E4F"/>
<stop offset="0.61" stop-color="#E43E4F"/>
<stop offset="0.69" stop-color="#E23A4A"/>
<stop offset="0.78" stop-color="#DD303D"/>
<stop offset="0.88" stop-color="#D41E26"/>
<stop offset="0.98" stop-color="#C70607"/>
<stop offset="1" stop-color="#C40000"/>
</linearGradient>
<linearGradient id="paint10_linear_0_4501" x1="-1.25326" y1="8.68113" x2="22.7488" y2="41.6762" gradientUnits="userSpaceOnUse">
<stop stop-color="#E43E4F"/>
<stop offset="0.34" stop-color="#C40000"/>
<stop offset="0.38" stop-color="#C70607"/>
<stop offset="0.55" stop-color="#D41E26"/>
<stop offset="0.71" stop-color="#DD303D"/>
<stop offset="0.86" stop-color="#E23A4A"/>
<stop offset="1" stop-color="#E43E4F"/>
</linearGradient>
<linearGradient id="paint11_linear_0_4501" x1="34.6995" y1="13.894" x2="6.09788" y2="25.7497" gradientUnits="userSpaceOnUse">
<stop stop-color="#F58C86"/>
<stop offset="0.23" stop-color="#EC6268"/>
<stop offset="0.44" stop-color="#E43E4F"/>
<stop offset="0.61" stop-color="#E43E4F"/>
<stop offset="0.69" stop-color="#E23A4A"/>
<stop offset="0.78" stop-color="#DD303D"/>
<stop offset="0.88" stop-color="#D41E26"/>
<stop offset="0.98" stop-color="#C70607"/>
<stop offset="1" stop-color="#C40000"/>
</linearGradient>
<linearGradient id="paint12_linear_0_4501" x1="34.7492" y1="14.0137" x2="6.14756" y2="25.8696" gradientUnits="userSpaceOnUse">
<stop stop-color="#F58C86"/>
<stop offset="0.23" stop-color="#EC6268"/>
<stop offset="0.44" stop-color="#E43E4F"/>
<stop offset="0.61" stop-color="#E43E4F"/>
<stop offset="0.69" stop-color="#E23A4A"/>
<stop offset="0.78" stop-color="#DD303D"/>
<stop offset="0.88" stop-color="#D41E26"/>
<stop offset="0.98" stop-color="#C70607"/>
<stop offset="1" stop-color="#C40000"/>
</linearGradient>
<linearGradient id="paint13_linear_0_4501" x1="41.6361" y1="0.555135" x2="40.8994" y2="4.84863" gradientUnits="userSpaceOnUse">
<stop stop-color="#E43E4F"/>
<stop offset="0.14" stop-color="#F58C86"/>
<stop offset="0.38" stop-color="#EC6268"/>
<stop offset="0.61" stop-color="#E43E4F"/>
<stop offset="0.69" stop-color="#E23A4A"/>
<stop offset="0.78" stop-color="#DD303D"/>
<stop offset="0.88" stop-color="#D41E26"/>
<stop offset="0.98" stop-color="#C70607"/>
<stop offset="1" stop-color="#C40000"/>
</linearGradient>
<linearGradient id="paint14_linear_0_4501" x1="41.629" y1="4.94768" x2="35.244" y2="4.94768" gradientUnits="userSpaceOnUse">
<stop stop-color="#C54331"/>
<stop offset="0.53" stop-color="#C40000"/>
<stop offset="1" stop-color="#C54331"/>
</linearGradient>
<linearGradient id="paint15_linear_0_4501" x1="26.0301" y1="18.8429" x2="23.7013" y2="15.3541" gradientUnits="userSpaceOnUse">
<stop stop-color="#F6D952"/>
<stop offset="0.06" stop-color="#F2C744"/>
<stop offset="0.16" stop-color="#EDB033"/>
<stop offset="0.25" stop-color="#EAA228"/>
<stop offset="0.32" stop-color="#E99D24"/>
<stop offset="0.53" stop-color="#EAA026"/>
<stop offset="0.67" stop-color="#ECA92C"/>
<stop offset="0.79" stop-color="#F1B836"/>
<stop offset="0.9" stop-color="#F7CD44"/>
<stop offset="1" stop-color="#FFE856"/>
</linearGradient>
<linearGradient id="paint16_linear_0_4501" x1="26.343" y1="13.9569" x2="28.0715" y2="17.4595" gradientUnits="userSpaceOnUse">
<stop stop-color="#F6D952"/>
<stop offset="0.51" stop-color="#F5CD46"/>
<stop offset="1" stop-color="#F4C841"/>
</linearGradient>
<radialGradient id="paint17_radial_0_4501" cx="0" cy="0" r="1" gradientUnits="userSpaceOnUse" gradientTransform="translate(27.5503 16.0697) rotate(180) scale(2.08502 2.09931)">
<stop stop-color="#EFAB26"/>
<stop offset="0.52" stop-color="#DF8B26"/>
<stop offset="0.6" stop-color="#D9831E"/>
<stop offset="0.84" stop-color="#CA6F08"/>
<stop offset="1" stop-color="#C46700"/>
</radialGradient>
<radialGradient id="paint18_radial_0_4501" cx="0" cy="0" r="1" gradientUnits="userSpaceOnUse" gradientTransform="translate(27.35 15.6459) rotate(-128.28) scale(3.76887 1.08928)">
<stop offset="0.21" stop-color="#F4C841"/>
<stop offset="0.69" stop-color="#F6D246"/>
<stop offset="0.7" stop-color="#F7D54D"/>
<stop offset="0.75" stop-color="#FAE36D"/>
<stop offset="0.81" stop-color="#FCEF86"/>
<stop offset="0.87" stop-color="#FEF798"/>
<stop offset="0.93" stop-color="#FFFBA3"/>
<stop offset="1" stop-color="#FFFDA6"/>
</radialGradient>
<linearGradient id="paint19_linear_0_4501" x1="35.2615" y1="9.14897" x2="36.0003" y2="10.1095" gradientUnits="userSpaceOnUse">
<stop offset="0.06" stop-color="#EFAB26"/>
<stop offset="0.15" stop-color="#ECA526"/>
<stop offset="0.28" stop-color="#E49524"/>
<stop offset="0.36" stop-color="#DD8523"/>
<stop offset="0.45" stop-color="#DE8823"/>
<stop offset="0.51" stop-color="#E39124"/>
<stop offset="0.56" stop-color="#EAA025"/>
<stop offset="0.59" stop-color="#EFAB26"/>
</linearGradient>
<linearGradient id="paint20_linear_0_4501" x1="43.8334" y1="2.28741" x2="43.8457" y2="3.58312" gradientUnits="userSpaceOnUse">
<stop stop-color="#F6D952"/>
<stop offset="0.12" stop-color="#FCE355"/>
<stop offset="0.25" stop-color="#FFE856"/>
<stop offset="0.29" stop-color="#FCDE4F"/>
<stop offset="0.47" stop-color="#F2BB38"/>
<stop offset="0.62" stop-color="#EBA529"/>
<stop offset="0.71" stop-color="#E99D24"/>
</linearGradient>
<linearGradient id="paint21_linear_0_4501" x1="43.3186" y1="4.88479" x2="43.1132" y2="8.61604" gradientUnits="userSpaceOnUse">
<stop offset="0.09" stop-color="#E43E4F"/>
<stop offset="0.3" stop-color="#F58C86"/>
<stop offset="0.44" stop-color="#EC6268"/>
<stop offset="0.57" stop-color="#E43E4F"/>
<stop offset="0.64" stop-color="#E23A4A"/>
<stop offset="0.71" stop-color="#DD303D"/>
<stop offset="0.79" stop-color="#D41E26"/>
<stop offset="0.87" stop-color="#C70607"/>
<stop offset="0.88" stop-color="#C40000"/>
</linearGradient>
<linearGradient id="paint22_linear_0_4501" x1="37.7212" y1="4.51611" x2="41.1916" y2="9.05165" gradientUnits="userSpaceOnUse">
<stop stop-color="#E43E4F"/>
<stop offset="0.09" stop-color="#DD303D"/>
<stop offset="0.42" stop-color="#C40000"/>
<stop offset="0.78" stop-color="#D92934"/>
<stop offset="0.95" stop-color="#E43E4F"/>
</linearGradient>
</defs>
</svg>
