<svg width="48" height="49" viewBox="0 0 48 49" fill="none" xmlns="http://www.w3.org/2000/svg">
<g filter="url(#filter0_d_0_4572)">
<path d="M14.7664 27.9741V43.8148H3.22852V27.9741L8.99745 23.4482L14.7664 27.9741Z" fill="#F40E34"/>
<path d="M19.0944 21.1845L8.26758 32.5098L19.0944 43.8351L29.9213 32.5098L19.0944 21.1845Z" fill="#FFD422"/>
<path d="M9.71762 4.58984H8.27539V23.4478H9.71762V4.58984Z" fill="#FFC982"/>
<path d="M9.20715 35.7372L5.60156 39.5088L6.62127 40.5754L10.2269 36.8039L9.20715 35.7372Z" fill="white"/>
<path d="M12.6043 38.5332H11.1621V40.0418H12.6043V38.5332Z" fill="white"/>
<path d="M6.83481 34.7617H5.39258V36.2704H6.83481V34.7617Z" fill="white"/>
<path d="M19.8133 4.58984H18.3711V21.1848H19.8133V4.58984Z" fill="#FFC982"/>
<path d="M45.0527 25.71H34.957V43.8136H45.0527V25.71Z" fill="#69C229"/>
<path d="M40.7274 4.58984H39.2852V25.7107H40.7274V4.58984Z" fill="#FFC982"/>
<path d="M41.6587 31.9663L37.332 36.4922L38.3517 37.5588L42.6784 33.0329L41.6587 31.9663Z" fill="white"/>
<path d="M42.8895 36.2715H41.4473V37.7801H42.8895V36.2715Z" fill="white"/>
<path d="M38.5633 31.7441H37.1211V33.2528H38.5633V31.7441Z" fill="white"/>
<path d="M30.6297 4.58984H29.1875V15.1503H30.6297V4.58984Z" fill="#FFC982"/>
<path d="M38.1309 22.2399L36.3588 24.432L36.561 27.2953L33.8942 27.9772L32.4511 30.4203L29.9102 29.3305L27.3691 30.4203L25.926 27.9771L23.2593 27.2951L23.4616 24.4319L21.6895 22.2399L23.4616 20.0479L23.2594 17.1846L25.9262 16.5026L27.3693 14.0596L29.9102 15.1494L32.4512 14.0596L33.8943 16.5027L36.5611 17.1848L36.3588 20.048L38.1309 22.2399Z" fill="#5AAAE7"/>
<path d="M31.563 19.143L27.2363 23.6689L28.256 24.7356L32.5827 20.2097L31.563 19.143Z" fill="white"/>
<path d="M32.7938 23.4482H31.3516V24.9569H32.7938V23.4482Z" fill="white"/>
<path d="M28.4696 18.9209H27.0273V20.4295H28.4696V18.9209Z" fill="white"/>
<path d="M20.7466 29.7016L16.4199 34.2275L17.4396 35.2942L21.7663 30.7683L20.7466 29.7016Z" fill="white"/>
<path d="M21.9774 34.0068H20.5352V35.5155H21.9774V34.0068Z" fill="white"/>
<path d="M17.6512 29.4824H16.209V30.9911H17.6512V29.4824Z" fill="white"/>
<path d="M2.50586 27.5945V44.5666H15.486V41.549H14.0437V43.058H3.94809V28.3488L8.99591 24.3887L11.4476 26.312L12.3131 25.1054L9.71703 23.0686V5.23502C10.9576 4.89764 11.8804 3.72661 11.8804 2.32488C11.8804 0.661189 10.5864 -0.692383 8.99591 -0.692383C7.40544 -0.692383 6.11145 0.661189 6.11145 2.32488C6.11145 3.72661 7.03428 4.89764 8.2748 5.23502V23.0686L2.50586 27.5945ZM7.55368 2.32488C7.55368 1.49285 8.2005 0.816251 8.99591 0.816251C9.79133 0.816251 10.4381 1.49285 10.4381 2.32488C10.4381 3.15692 9.79133 3.83352 8.99591 3.83352C8.2005 3.83352 7.55368 3.15692 7.55368 2.32488Z" fill="#412A2C"/>
<path d="M9.20715 35.7362L5.60156 39.5078L6.62127 40.5745L10.2269 36.8029L9.20715 35.7362Z" fill="#412A2C"/>
<path d="M12.6004 38.5322H11.1582V40.0409H12.6004V38.5322Z" fill="#412A2C"/>
<path d="M6.83091 34.7607H5.38867V36.2694H6.83091V34.7607Z" fill="#412A2C"/>
<path d="M21.9753 2.32488C21.9753 0.661189 20.6813 -0.692383 19.0908 -0.692383C17.5003 -0.692383 16.2063 0.661189 16.2063 2.32488C16.2063 3.72661 17.1292 4.89764 18.3697 5.23502V20.8705L7.24414 32.5082L19.0908 44.9L30.9375 32.5082L29.6953 31.2088L28.6755 32.2755L28.8981 32.5082L19.0908 42.7667L9.28355 32.5082L19.0908 22.2495L19.3021 22.4705L20.3218 21.4038L19.8119 20.8705V5.23502C21.0525 4.89764 21.9753 3.72661 21.9753 2.32488ZM17.6486 2.32488C17.6486 1.49285 18.2954 0.816251 19.0908 0.816251C19.8862 0.816251 20.533 1.49285 20.533 2.32488C20.533 3.15692 19.8862 3.83352 19.0908 3.83352C18.2954 3.83352 17.6486 3.15692 17.6486 2.32488Z" fill="#412A2C"/>
<path d="M40.7244 5.23502C41.9649 4.89764 42.8878 3.72661 42.8878 2.32488C42.8878 0.661189 41.5938 -0.692383 40.0033 -0.692383C38.4128 -0.692383 37.1188 0.661189 37.1188 2.32488C37.1188 3.72661 38.0417 4.89764 39.2822 5.23502V24.9544H37.84V26.463H44.33V43.058H35.6766V29.4803H34.2344V44.5666H45.7722V24.9544H40.7244V5.23502ZM38.5611 2.32488C38.5611 1.49285 39.2079 0.816251 40.0033 0.816251C40.7987 0.816251 41.4455 1.49285 41.4455 2.32488C41.4455 3.15692 40.7987 3.83352 40.0033 3.83352C39.2079 3.83352 38.5611 3.15692 38.5611 2.32488Z" fill="#412A2C"/>
<path d="M41.6568 31.9653L37.3301 36.4912L38.3498 37.5579L42.6765 33.032L41.6568 31.9653Z" fill="#412A2C"/>
<path d="M42.8875 36.2705H41.4453V37.7791H42.8875V36.2705Z" fill="#412A2C"/>
<path d="M38.5614 31.7432H37.1191V33.2518H38.5614V31.7432Z" fill="#412A2C"/>
<path d="M32.7936 2.32488C32.7936 0.661189 31.4996 -0.692383 29.9092 -0.692383C28.3187 -0.692383 27.0247 0.661189 27.0247 2.32488C27.0247 3.72661 27.9475 4.89764 29.188 5.23502V14.0237L27.0765 13.1177L25.467 15.8422L22.4945 16.6024L22.7198 19.795L20.7441 22.2388L22.7198 24.6826L22.4941 27.8752L25.467 28.6354L27.0757 31.3598L29.9092 30.1444L32.7419 31.3598L34.3514 28.6354L37.3239 27.8755L37.0985 24.6829L39.0742 22.2388L37.0985 19.795L37.3242 16.6024L34.3514 15.8422L32.7426 13.1177L30.6303 14.0238V5.23502C31.8708 4.89764 32.7936 3.72661 32.7936 2.32488ZM28.4669 2.32488C28.4669 1.49285 29.1137 0.816251 29.9092 0.816251C30.7046 0.816251 31.3514 1.49285 31.3514 2.32488C31.3514 3.15692 30.7046 3.83352 29.9092 3.83352C29.1137 3.83352 28.4669 3.15692 28.4669 2.32488ZM33.4352 17.1608L35.7961 17.7648L35.6168 20.2988L37.1855 22.2388L35.6168 24.1791L35.7957 26.7131L33.4352 27.3168L32.1581 29.4785L29.9092 28.5142L27.6602 29.4785L26.3832 27.3168L24.0223 26.7127L24.2015 24.1794L22.6328 22.2388L24.2015 20.2988L24.0226 17.7648L26.3832 17.1608L27.6602 14.9991L29.9092 15.9634L32.1581 14.9991L33.4352 17.1608Z" fill="#412A2C"/>
<path d="M31.563 19.1421L27.2363 23.668L28.256 24.7346L32.5827 20.2087L31.563 19.1421Z" fill="#412A2C"/>
<path d="M32.7938 23.4473H31.3516V24.9559H32.7938V23.4473Z" fill="#412A2C"/>
<path d="M28.4657 18.9199H27.0234V20.4286H28.4657V18.9199Z" fill="#412A2C"/>
<path d="M20.7447 29.7007L16.418 34.2266L17.4377 35.2932L21.7644 30.7673L20.7447 29.7007Z" fill="#412A2C"/>
<path d="M21.9774 34.0059H20.5352V35.5145H21.9774V34.0059Z" fill="#412A2C"/>
<path d="M17.6493 29.4814H16.207V30.9901H17.6493V29.4814Z" fill="#412A2C"/>
</g>
<defs>
<filter id="filter0_d_0_4572" x="0.508922" y="-0.692383" width="47.2595" height="49.5866" filterUnits="userSpaceOnUse" color-interpolation-filters="sRGB">
<feFlood flood-opacity="0" result="BackgroundImageFix"/>
<feColorMatrix in="SourceAlpha" type="matrix" values="0 0 0 0 0 0 0 0 0 0 0 0 0 0 0 0 0 0 127 0" result="hardAlpha"/>
<feOffset dy="1.99694"/>
<feGaussianBlur stdDeviation="0.998469"/>
<feComposite in2="hardAlpha" operator="out"/>
<feColorMatrix type="matrix" values="0 0 0 0 0 0 0 0 0 0 0 0 0 0 0 0 0 0 0.25 0"/>
<feBlend mode="normal" in2="BackgroundImageFix" result="effect1_dropShadow_0_4572"/>
<feBlend mode="normal" in="SourceGraphic" in2="effect1_dropShadow_0_4572" result="shape"/>
</filter>
</defs>
</svg>
