<svg width="22" height="22" viewBox="0 0 22 22" fill="none" xmlns="http://www.w3.org/2000/svg">
<path d="M14.8672 20.7109H12.2891C11.9328 20.7109 11.6445 20.4227 11.6445 20.0664C11.6445 19.7102 11.9328 19.4219 12.2891 19.4219H14.8672C15.9334 19.4219 16.8008 18.5545 16.8008 17.4883V14.9102C16.8008 14.5539 17.0891 14.2656 17.4453 14.2656C17.8016 14.2656 18.0898 14.5539 18.0898 14.9102V17.4883C18.0898 19.2652 16.6441 20.7109 14.8672 20.7109Z" fill="white"/>
<path d="M20.668 9.66797V12.2461L19.3789 13.7843V9.66797C19.3789 5.05308 15.6149 1.28906 11 1.28906C6.38511 1.28906 2.62109 5.05308 2.62109 9.66797V13.9906L1.33203 12.2461V9.66797C1.33203 4.33125 5.66328 0 11 0C16.3367 0 20.668 4.33125 20.668 9.66797Z" fill="white"/>
<path d="M20.668 9.66797V12.2461L19.3789 13.7843V9.66797C19.3789 5.05308 15.6149 1.28906 11 1.28906V0C16.3367 0 20.668 4.33125 20.668 9.66797Z" fill="white"/>
<path d="M4.55469 16.8438H3.26562C2.1994 16.8438 1.33203 15.9764 1.33203 14.9102V12.2461C1.33203 11.1799 2.1994 10.3125 3.26562 10.3125H4.55469C4.91094 10.3125 5.19922 10.6008 5.19922 10.957V16.1992C5.19922 16.5555 4.91094 16.8438 4.55469 16.8438Z" fill="white"/>
<path d="M18.7344 16.8438H17.4453C17.0891 16.8438 16.8008 16.5555 16.8008 16.1992V10.957C16.8008 10.6008 17.0891 10.3125 17.4453 10.3125H18.7344C19.8006 10.3125 20.668 11.1799 20.668 12.2461V14.9102C20.668 15.9764 19.8006 16.8438 18.7344 16.8438Z" fill="white"/>
<path d="M11 18.1328C9.93004 18.1328 9.06641 18.9964 9.06641 20.0664C9.06641 21.1363 9.93004 22 11 22C12.07 22 12.9336 21.1363 12.9336 20.0664C12.9336 18.9964 12.07 18.1328 11 18.1328Z" fill="white"/>
<path d="M12.9336 20.0664C12.9336 21.1363 12.07 22 11 22V18.1328C12.07 18.1328 12.9336 18.9964 12.9336 20.0664Z" fill="white"/>
<path d="M5.84375 18.1328C4.77752 18.1328 3.91016 17.2654 3.91016 16.1992V10.957C3.91016 9.8908 4.77752 9.02344 5.84375 9.02344C6.90998 9.02344 7.77734 9.8908 7.77734 10.957V16.1992C7.77734 17.2654 6.90998 18.1328 5.84375 18.1328Z" fill="white"/>
<path d="M16.1562 18.1328C15.09 18.1328 14.2227 17.2654 14.2227 16.1992V10.957C14.2227 9.8908 15.09 9.02344 16.1562 9.02344C17.2225 9.02344 18.0898 9.8908 18.0898 10.957V16.1992C18.0898 17.2654 17.2225 18.1328 16.1562 18.1328Z" fill="white"/>
</svg>
