<svg width="22" height="14" viewBox="0 0 22 14" fill="none" xmlns="http://www.w3.org/2000/svg">
<path d="M21.2467 1.3007L20.8384 5.23516C20.7912 5.66706 20.2614 5.85264 19.9577 5.54897L18.9927 4.5839L12.9155 10.661C12.5342 11.0423 11.8627 11.0423 11.4814 10.661L8.1341 7.31373L2.47875 12.9725C2.28303 13.1682 2.02323 13.2694 1.7634 13.2694C1.50357 13.2694 1.24376 13.1682 1.04804 12.9725C0.653256 12.5776 0.653256 11.9365 1.04804 11.5384L7.41875 5.16767C7.80005 4.78637 8.47153 4.78637 8.84946 5.16767L12.2001 8.51498L17.562 3.15319L16.4315 2.02281C16.1245 1.71573 16.3101 1.18598 16.742 1.14212L20.6764 0.733817C21.0037 0.696705 21.2805 0.973401 21.2467 1.3007V1.3007Z" fill="#BDBDBD"/>
</svg>
