<svg width="16" height="20" viewBox="0 0 16 20" fill="none" xmlns="http://www.w3.org/2000/svg">
<path d="M13.9881 6.07434C13.9109 5.99703 13.8164 5.93924 13.7123 5.90576C13.6083 5.87228 13.4978 5.86408 13.39 5.88184C13.283 5.89973 13.1817 5.94269 13.0945 6.00722C13.0073 6.07174 12.9366 6.156 12.8881 6.25309C12.6778 6.61693 12.4213 6.95201 12.125 7.24996C12.0552 5.44253 11.3933 3.70814 10.2413 2.31371C9.59671 1.6519 8.81749 1.1363 7.95636 0.801811C7.09523 0.467322 6.17228 0.321755 5.25 0.374964C5.12563 0.375296 5.00368 0.40936 4.89714 0.473527C4.79059 0.537693 4.70345 0.62956 4.645 0.739339C4.5898 0.846845 4.56391 0.967002 4.56995 1.0877C4.57598 1.2084 4.61373 1.32538 4.67938 1.42684C4.77563 1.57121 6.86562 4.78871 4.48 7.68309C3.875 7.20871 3.1875 6.45934 3.1875 5.87496C3.18659 5.72102 3.13403 5.57183 3.03825 5.45131C2.94247 5.33078 2.80901 5.24589 2.65925 5.21023C2.50949 5.17458 2.35209 5.19022 2.21228 5.25465C2.07246 5.31908 1.95831 5.42857 1.88813 5.56559C0.949047 7.60374 0.454549 9.81844 0.4375 12.0625C0.4375 17.9887 4.84438 19.5287 5.03 19.625C5.16324 19.6702 5.30716 19.6735 5.44233 19.6344C5.57751 19.5953 5.69742 19.5156 5.78587 19.4062C5.87433 19.2967 5.92707 19.1628 5.93697 19.0224C5.94687 18.882 5.91346 18.742 5.84125 18.6212C5.18905 17.4501 4.93112 16.1002 5.10563 14.7712C5.52912 15.5925 6.15944 16.2892 6.93437 16.7925C7.08016 16.8891 7.25731 16.9266 7.42975 16.8972C7.60219 16.8678 7.75694 16.7738 7.8625 16.6343C8.8132 15.2433 9.26401 13.571 9.14125 11.8906C9.86312 12.9975 10.4131 15.0668 9.4025 18.7656C9.37638 18.8667 9.37366 18.9725 9.39452 19.0748C9.41538 19.1772 9.45929 19.2734 9.52291 19.3562C9.58653 19.4391 9.66819 19.5063 9.76168 19.5529C9.85518 19.5995 9.95805 19.6241 10.0625 19.625C10.124 19.635 10.1867 19.635 10.2481 19.625C11.8253 19.0969 13.192 18.0779 14.1482 16.7172C15.1045 15.3564 15.6001 13.7252 15.5625 12.0625C15.5625 7.77934 14.1462 6.23934 13.9881 6.07434Z" fill="#BDBDBD"/>
</svg>
