<svg width="22" height="22" viewBox="0 0 22 22" fill="none" xmlns="http://www.w3.org/2000/svg">
<g clip-path="url(#clip0_0_3269)">
<path d="M18.7367 8.56641H10.8288C9.58123 8.56641 8.56625 9.58138 8.56625 10.829V15.1254L6.5174 16.5888C6.35574 16.7042 6.25977 16.8907 6.25977 17.0893C6.25977 17.2882 6.35574 17.4746 6.5174 17.59L8.59093 19.0711C8.75291 20.1609 9.69482 20.9996 10.8288 20.9996H18.7367C19.9843 20.9996 20.9993 19.9846 20.9993 18.7368V10.829C20.9993 9.58138 19.9843 8.56641 18.7367 8.56641ZM16.0777 17.2114C15.9327 17.2114 15.8207 17.1654 15.7879 17.0401L15.5373 16.1636H14.0281L13.7778 17.0401C13.7448 17.1654 13.6328 17.2114 13.4878 17.2114C13.2571 17.2114 12.9474 17.0666 12.9474 16.8557C12.9474 16.8424 12.954 16.8162 12.9605 16.7897L14.2325 12.6446C14.2918 12.4469 14.5356 12.3544 14.7795 12.3544C15.0299 12.3544 15.2738 12.4469 15.333 12.6446L16.605 16.7897C16.6116 16.8162 16.6181 16.8359 16.6181 16.8557C16.6181 17.0598 16.3084 17.2114 16.0777 17.2114Z" fill="white"/>
<path d="M14.207 15.4918H15.3539L14.7803 13.4688L14.207 15.4918Z" fill="white"/>
<path d="M7.33651 10.8294C7.33651 10.0033 7.62538 9.2439 8.10651 8.64516C7.4046 8.64516 6.75332 8.42551 6.21643 8.05236C5.67954 8.42567 5.02826 8.64516 4.32619 8.64516C4.13473 8.64516 3.97932 8.48975 3.97932 8.29813C3.97932 8.10651 4.13473 7.95126 4.32619 7.95126C4.81789 7.95126 5.27804 7.81508 5.67201 7.57924C5.19681 7.06638 4.88086 6.40421 4.80444 5.67137H4.32635C4.13473 5.67137 3.97932 5.51612 3.97932 5.3245C3.97932 5.13288 4.13473 4.97747 4.32635 4.97747H5.86972V4.13505C5.86972 3.94327 6.02497 3.78802 6.21659 3.78802C6.40821 3.78802 6.56346 3.94327 6.56346 4.13505V4.97747H8.10683C8.29845 4.97747 8.45387 5.13288 8.45387 5.3245C8.45387 5.51612 8.29845 5.67137 8.10683 5.67137H7.62875C7.55232 6.40421 7.23637 7.06638 6.76117 7.57924C7.15498 7.8154 7.61529 7.95126 8.10683 7.95126C8.28996 7.95126 8.43961 8.09322 8.45258 8.27314C9.07663 7.69251 9.91216 7.33635 10.8297 7.33635H12.4332V5.87421L14.482 4.41078C14.6435 4.29543 14.7395 4.10893 14.7395 3.91026C14.7395 3.71143 14.6435 3.52494 14.482 3.40958L12.4085 1.92854C12.2464 0.838737 11.3045 0 10.1704 0H2.26275C1.01498 0 0 1.01498 0 2.26259V10.1706C0 11.4182 1.01498 12.4332 2.26275 12.4332H7.33651V10.8294Z" fill="white"/>
<path d="M6.21671 7.14603C6.59643 6.75206 6.85422 6.24049 6.92968 5.67188H5.50391C5.57937 6.24049 5.83732 6.75206 6.21671 7.14603Z" fill="white"/>
</g>
<defs>
<clipPath id="clip0_0_3269">
<rect width="21" height="21" fill="white"/>
</clipPath>
</defs>
</svg>
