<svg width="22" height="22" viewBox="0 0 22 22" fill="none" xmlns="http://www.w3.org/2000/svg">
<g clip-path="url(#clip0_0_3016)">
<path d="M20.9096 8.86863C21.0373 8.74095 21.1386 8.58936 21.2077 8.42254C21.2768 8.25571 21.3124 8.0769 21.3124 7.89633C21.3124 7.71576 21.2768 7.53695 21.2077 7.37013C21.1386 7.2033 21.0373 7.05172 20.9096 6.92403L15.0762 1.09025C14.9485 0.962565 14.7969 0.861277 14.6301 0.792172C14.4633 0.723068 14.2845 0.6875 14.1039 0.6875C13.9233 0.6875 13.7445 0.723068 13.5777 0.792172C13.4109 0.861277 13.2593 0.962565 13.1316 1.09025L10.2149 4.00697L10.4579 5.70853L8.75634 5.46516L0.6875 13.5343V15.8698L6.13009 21.3124H8.46553L20.9096 8.86863Z" fill="white"/>
<path d="M2.0625 10.3125H13.75L14.7812 11.6875L15.8125 10.3125H19.9375C20.3022 10.3125 20.6519 10.4574 20.9098 10.7152C21.1676 10.9731 21.3125 11.3228 21.3125 11.6875V19.9375C21.3125 20.3022 21.1676 20.6519 20.9098 20.9098C20.6519 21.1676 20.3022 21.3125 19.9375 21.3125H15.8125L14.7812 19.9375L13.75 21.3125H2.0625C1.69783 21.3125 1.34809 21.1676 1.09023 20.9098C0.832366 20.6519 0.6875 20.3022 0.6875 19.9375V11.6875C0.6875 11.3228 0.832366 10.9731 1.09023 10.7152C1.34809 10.4574 1.69783 10.3125 2.0625 10.3125Z" fill="white"/>
<path d="M3.09375 13.4062H7.04688V15.8125H3.09375V13.4062Z" fill="white"/>
<path d="M20.7436 9.88452L21.3352 9.29293C21.7053 8.92193 21.9132 8.41928 21.9132 7.89524C21.9132 7.37119 21.7053 6.86854 21.3352 6.49755L15.5031 0.663769C15.1321 0.293736 14.6295 0.0859375 14.1054 0.0859375C13.5814 0.0859375 13.0788 0.293736 12.7077 0.663769L9.79103 3.58083C9.72477 3.64677 9.67475 3.72721 9.64492 3.81581C9.61509 3.9044 9.60627 3.99871 9.61916 4.0913L9.74875 4.99846L8.84159 4.86921C8.74916 4.85593 8.65491 4.86436 8.56631 4.89383C8.4777 4.92331 8.39718 4.97302 8.33113 5.03902L3.65922 9.71093H2.0625C1.53848 9.71156 1.0361 9.92001 0.665563 10.2906C0.295023 10.6611 0.0865743 11.1635 0.0859375 11.6875V19.9375C0.0865743 20.4615 0.295023 20.9639 0.665563 21.3344C1.0361 21.705 1.53848 21.9134 2.0625 21.9141H13.75C13.8434 21.914 13.9355 21.8922 14.019 21.8505C14.1025 21.8087 14.1752 21.7481 14.2313 21.6734L14.7812 20.9402L15.3312 21.6734C15.3873 21.7481 15.46 21.8087 15.5435 21.8505C15.627 21.8922 15.7191 21.914 15.8125 21.9141H19.9375C20.4615 21.9134 20.9639 21.705 21.3344 21.3344C21.705 20.9639 21.9134 20.4615 21.9141 19.9375V11.6875C21.9136 11.3061 21.8028 10.933 21.5951 10.6131C21.3875 10.2932 21.0917 10.0402 20.7436 9.88452ZM8.96912 6.10327L10.3727 6.30368C10.4642 6.31258 10.5567 6.3011 10.6433 6.27004C10.7299 6.23899 10.8086 6.18914 10.8737 6.12407C10.9387 6.059 10.9886 5.98032 11.0196 5.8937C11.0507 5.80707 11.0622 5.71464 11.0533 5.62305L10.8529 4.21952L13.5568 1.51524C13.702 1.37044 13.8987 1.28913 14.1037 1.28913C14.3088 1.28913 14.5054 1.37044 14.6506 1.51524L20.4844 7.34833C20.6292 7.49351 20.7105 7.69019 20.7105 7.89524C20.7105 8.10028 20.6292 8.29696 20.4844 8.44214L19.2156 9.71093H15.8125C15.7191 9.71098 15.627 9.73275 15.5435 9.77451C15.46 9.81627 15.3873 9.87688 15.3312 9.95155L14.7812 10.6848L14.2313 9.95155C14.1752 9.87688 14.1025 9.81627 14.019 9.77451C13.9355 9.73275 13.8434 9.71098 13.75 9.71093H5.3625L8.96912 6.10327ZM20.7109 19.9375C20.7107 20.1425 20.6291 20.3391 20.4841 20.4841C20.3391 20.6291 20.1425 20.7107 19.9375 20.7109H16.1133L15.2625 19.5766C15.204 19.5055 15.1305 19.4484 15.0473 19.4091C14.9641 19.3699 14.8732 19.3495 14.7812 19.3495C14.6893 19.3495 14.5984 19.3699 14.5152 19.4091C14.432 19.4484 14.3585 19.5055 14.3 19.5766L13.4492 20.7109H2.0625C1.85746 20.7107 1.66089 20.6291 1.5159 20.4841C1.37091 20.3391 1.28934 20.1425 1.28906 19.9375V11.6875C1.28934 11.4824 1.37091 11.2859 1.5159 11.1409C1.66089 10.9959 1.85746 10.9143 2.0625 10.9141H13.4492L14.3 12.0484C14.3585 12.1194 14.432 12.1766 14.5152 12.2159C14.5984 12.2551 14.6893 12.2755 14.7812 12.2755C14.8732 12.2755 14.9641 12.2551 15.0473 12.2159C15.1305 12.1766 15.204 12.1194 15.2625 12.0484L16.1133 10.9141H19.9375C20.1425 10.9143 20.3391 10.9959 20.4841 11.1409C20.6291 11.2859 20.7107 11.4824 20.7109 11.6875V19.9375Z" fill="white"/>
<path d="M16.352 9.0501C16.4649 9.16284 16.6179 9.22617 16.7774 9.22617C16.9369 9.22617 17.0899 9.16284 17.2028 9.0501L18.4183 7.8346C18.4741 7.77874 18.5185 7.71242 18.5487 7.63943C18.5789 7.56644 18.5945 7.48821 18.5945 7.40921C18.5945 7.33021 18.5789 7.25198 18.5487 7.17899C18.5185 7.106 18.4741 7.03968 18.4183 6.98382C18.3624 6.92796 18.2961 6.88364 18.2231 6.85341C18.1501 6.82318 18.0719 6.80762 17.9929 6.80762C17.9139 6.80762 17.8357 6.82318 17.7627 6.85341C17.6897 6.88364 17.6234 6.92796 17.5675 6.98382L16.352 8.19932C16.2961 8.25518 16.2518 8.3215 16.2216 8.39449C16.1913 8.46748 16.1758 8.54571 16.1758 8.62471C16.1758 8.70371 16.1913 8.78194 16.2216 8.85493C16.2518 8.92792 16.2961 8.99424 16.352 9.0501Z" fill="#14163D"/>
<path d="M15.0161 4.43128C15.072 4.37542 15.1163 4.3091 15.1465 4.23611C15.1768 4.16312 15.1923 4.08489 15.1923 4.00589C15.1923 3.92689 15.1768 3.84866 15.1465 3.77567C15.1163 3.70268 15.072 3.63636 15.0161 3.5805C14.9603 3.52464 14.894 3.48032 14.821 3.45009C14.748 3.41986 14.6698 3.4043 14.5907 3.4043C14.5117 3.4043 14.4335 3.41986 14.3605 3.45009C14.2875 3.48032 14.2212 3.52464 14.1654 3.5805L12.9502 4.79566C12.8406 4.90909 12.7799 5.06103 12.7813 5.21876C12.7826 5.37649 12.8458 5.52738 12.9574 5.63894C13.0689 5.7505 13.2197 5.81379 13.3775 5.8152C13.5352 5.8166 13.6872 5.75599 13.8006 5.64644L15.0161 4.43128Z" fill="#14163D"/>
<path d="M14.651 7.34831C14.7069 7.40417 14.7732 7.44849 14.8462 7.47873C14.9192 7.50896 14.9974 7.52452 15.0764 7.52452C15.1554 7.52452 15.2336 7.50896 15.3066 7.47873C15.3796 7.44849 15.4459 7.40417 15.5018 7.34831L16.7173 6.13281C16.7748 6.0773 16.8206 6.01091 16.8521 5.93752C16.8836 5.86412 16.9002 5.78518 16.9008 5.7053C16.9015 5.62543 16.8863 5.54622 16.856 5.47229C16.8258 5.39837 16.7811 5.33121 16.7246 5.27474C16.6681 5.21827 16.6009 5.17362 16.527 5.14338C16.453 5.11315 16.3738 5.09795 16.294 5.09866C16.2141 5.09937 16.1352 5.11598 16.0618 5.14752C15.9884 5.17906 15.922 5.2249 15.8665 5.28237L14.651 6.49684C14.5951 6.55274 14.5507 6.6191 14.5205 6.69215C14.4902 6.7652 14.4746 6.8435 14.4746 6.92257C14.4746 7.00165 14.4902 7.07994 14.5205 7.15299C14.5507 7.22604 14.5951 7.29241 14.651 7.34831Z" fill="#14163D"/>
<path d="M12.3414 6.74066C12.2856 6.68479 12.2193 6.64048 12.1463 6.61025C12.0733 6.58001 11.995 6.56445 11.916 6.56445C11.837 6.56445 11.7588 6.58001 11.6858 6.61025C11.6128 6.64048 11.5465 6.68479 11.4907 6.74066C11.4348 6.79652 11.3905 6.86284 11.3602 6.93583C11.33 7.00882 11.3145 7.08704 11.3145 7.16605C11.3145 7.24505 11.33 7.32328 11.3602 7.39627C11.3905 7.46925 11.4348 7.53557 11.4907 7.59144L12.2197 8.32053C12.2756 8.37639 12.3419 8.42071 12.4149 8.45094C12.4879 8.48117 12.5661 8.49673 12.6451 8.49673C12.7241 8.49673 12.8024 8.48117 12.8754 8.45094C12.9483 8.42071 13.0147 8.37639 13.0705 8.32053C13.1264 8.26467 13.1707 8.19835 13.2009 8.12536C13.2312 8.05237 13.2467 7.97414 13.2467 7.89514C13.2467 7.81614 13.2312 7.73791 13.2009 7.66492C13.1707 7.59193 13.1264 7.52561 13.0705 7.46975L12.3414 6.74066Z" fill="#14163D"/>
<path d="M18.9062 17.6172H17.1875C17.028 17.6172 16.8749 17.6806 16.7621 17.7934C16.6493 17.9062 16.5859 18.0592 16.5859 18.2188C16.5859 18.3783 16.6493 18.5313 16.7621 18.6441C16.8749 18.7569 17.028 18.8203 17.1875 18.8203H18.9062C19.0658 18.8203 19.2188 18.7569 19.3316 18.6441C19.4444 18.5313 19.5078 18.3783 19.5078 18.2188C19.5078 18.0592 19.4444 17.9062 19.3316 17.7934C19.2188 17.6806 19.0658 17.6172 18.9062 17.6172Z" fill="#14163D"/>
<path d="M18.9062 12.8047H17.1875C17.028 12.8047 16.8749 12.8681 16.7621 12.9809C16.6493 13.0937 16.5859 13.2467 16.5859 13.4062C16.5859 13.5658 16.6493 13.7188 16.7621 13.8316C16.8749 13.9444 17.028 14.0078 17.1875 14.0078H18.9062C19.0658 14.0078 19.2188 13.9444 19.3316 13.8316C19.4444 13.7188 19.5078 13.5658 19.5078 13.4062C19.5078 13.2467 19.4444 13.0937 19.3316 12.9809C19.2188 12.8681 19.0658 12.8047 18.9062 12.8047Z" fill="#14163D"/>
<path d="M18.9062 15.2109H17.1875C17.028 15.2109 16.8749 15.2743 16.7621 15.3871C16.6493 15.4999 16.5859 15.653 16.5859 15.8125C16.5859 15.972 16.6493 16.1251 16.7621 16.2379C16.8749 16.3507 17.028 16.4141 17.1875 16.4141H18.9062C19.0658 16.4141 19.2188 16.3507 19.3316 16.2379C19.4444 16.1251 19.5078 15.972 19.5078 15.8125C19.5078 15.653 19.4444 15.4999 19.3316 15.3871C19.2188 15.2743 19.0658 15.2109 18.9062 15.2109Z" fill="#14163D"/>
<path d="M3.09375 16.4141H7.04688C7.20642 16.4141 7.35943 16.3507 7.47224 16.2379C7.58506 16.1251 7.64844 15.972 7.64844 15.8125V13.4062C7.64844 13.2467 7.58506 13.0937 7.47224 12.9809C7.35943 12.8681 7.20642 12.8047 7.04688 12.8047H3.09375C2.93421 12.8047 2.7812 12.8681 2.66838 12.9809C2.55557 13.0937 2.49219 13.2467 2.49219 13.4062V15.8125C2.49219 15.972 2.55557 16.1251 2.66838 16.2379C2.7812 16.3507 2.93421 16.4141 3.09375 16.4141ZM3.69531 14.0078H6.44531V15.2109H3.69531V14.0078Z" fill="#14163D"/>
<path d="M12.375 15.2109H9.79688C9.63733 15.2109 9.48432 15.2743 9.37151 15.3871C9.25869 15.4999 9.19531 15.653 9.19531 15.8125C9.19531 15.972 9.25869 16.1251 9.37151 16.2379C9.48432 16.3507 9.63733 16.4141 9.79688 16.4141H12.375C12.5345 16.4141 12.6876 16.3507 12.8004 16.2379C12.9132 16.1251 12.9766 15.972 12.9766 15.8125C12.9766 15.653 12.9132 15.4999 12.8004 15.3871C12.6876 15.2743 12.5345 15.2109 12.375 15.2109Z" fill="#14163D"/>
<path d="M12.375 12.8047H9.79688C9.63733 12.8047 9.48432 12.8681 9.37151 12.9809C9.25869 13.0937 9.19531 13.2467 9.19531 13.4062C9.19531 13.5658 9.25869 13.7188 9.37151 13.8316C9.48432 13.9444 9.63733 14.0078 9.79688 14.0078H12.375C12.5345 14.0078 12.6876 13.9444 12.8004 13.8316C12.9132 13.7188 12.9766 13.5658 12.9766 13.4062C12.9766 13.2467 12.9132 13.0937 12.8004 12.9809C12.6876 12.8681 12.5345 12.8047 12.375 12.8047Z" fill="#14163D"/>
<path d="M12.375 17.6172H3.09375C2.93421 17.6172 2.7812 17.6806 2.66838 17.7934C2.55557 17.9062 2.49219 18.0592 2.49219 18.2188C2.49219 18.3783 2.55557 18.5313 2.66838 18.6441C2.7812 18.7569 2.93421 18.8203 3.09375 18.8203H12.375C12.5345 18.8203 12.6876 18.7569 12.8004 18.6441C12.9132 18.5313 12.9766 18.3783 12.9766 18.2188C12.9766 18.0592 12.9132 17.9062 12.8004 17.7934C12.6876 17.6806 12.5345 17.6172 12.375 17.6172Z" fill="#14163D"/>
<path d="M14.7812 16.2422C14.6217 16.2422 14.4687 16.3056 14.3559 16.4184C14.2431 16.5312 14.1797 16.6842 14.1797 16.8438V17.875C14.1797 18.0345 14.2431 18.1876 14.3559 18.3004C14.4687 18.4132 14.6217 18.4766 14.7812 18.4766C14.9408 18.4766 15.0938 18.4132 15.2066 18.3004C15.3194 18.1876 15.3828 18.0345 15.3828 17.875V16.8438C15.3828 16.6842 15.3194 16.5312 15.2066 16.4184C15.0938 16.3056 14.9408 16.2422 14.7812 16.2422Z" fill="#14163D"/>
<path d="M14.7812 13.1484C14.6217 13.1484 14.4687 13.2118 14.3559 13.3246C14.2431 13.4374 14.1797 13.5905 14.1797 13.75V14.7812C14.1797 14.9408 14.2431 15.0938 14.3559 15.2066C14.4687 15.3194 14.6217 15.3828 14.7812 15.3828C14.9408 15.3828 15.0938 15.3194 15.2066 15.2066C15.3194 15.0938 15.3828 14.9408 15.3828 14.7812V13.75C15.3828 13.5905 15.3194 13.4374 15.2066 13.3246C15.0938 13.2118 14.9408 13.1484 14.7812 13.1484Z" fill="#14163D"/>
</g>
<defs>
<clipPath id="clip0_0_3016">
<rect width="22" height="22" fill="white"/>
</clipPath>
</defs>
</svg>
