<svg width="20" height="20" viewBox="0 0 20 20" fill="none" xmlns="http://www.w3.org/2000/svg">
<path d="M16.875 5.1875H16.1875V16.1875H16.875C17.0573 16.1875 17.2322 16.2599 17.3611 16.3889C17.4901 16.5178 17.5625 16.6927 17.5625 16.875C17.5625 17.0573 17.4901 17.2322 17.3611 17.3611C17.2322 17.4901 17.0573 17.5625 16.875 17.5625H15.8438C15.5702 17.5625 15.3079 17.4538 15.1145 17.2605C14.9212 17.0671 14.8125 16.8048 14.8125 16.5312V2.4375C14.8125 1.89049 14.5952 1.36589 14.2084 0.979092C13.8216 0.592299 13.297 0.375 12.75 0.375H2.4375C1.89049 0.375 1.36589 0.592299 0.979092 0.979092C0.592299 1.36589 0.375 1.89049 0.375 2.4375V16.1875C0.375 17.0992 0.737164 17.9735 1.38182 18.6182C2.02648 19.2628 2.90082 19.625 3.8125 19.625H16.875C17.6043 19.625 18.3038 19.3353 18.8195 18.8195C19.3353 18.3038 19.625 17.6043 19.625 16.875V7.9375C19.6228 7.20882 19.3324 6.51061 18.8171 5.99536C18.3019 5.48011 17.6037 5.18968 16.875 5.1875ZM11.375 14.8125H3.8125C3.63016 14.8125 3.4553 14.7401 3.32636 14.6111C3.19743 14.4822 3.125 14.3073 3.125 14.125C3.125 13.9427 3.19743 13.7678 3.32636 13.6389C3.4553 13.5099 3.63016 13.4375 3.8125 13.4375H11.375C11.5573 13.4375 11.7322 13.5099 11.8611 13.6389C11.9901 13.7678 12.0625 13.9427 12.0625 14.125C12.0625 14.3073 11.9901 14.4822 11.8611 14.6111C11.7322 14.7401 11.5573 14.8125 11.375 14.8125ZM11.375 12.0625H3.8125C3.63016 12.0625 3.4553 11.9901 3.32636 11.8611C3.19743 11.7322 3.125 11.5573 3.125 11.375C3.125 11.1927 3.19743 11.0178 3.32636 10.8889C3.4553 10.7599 3.63016 10.6875 3.8125 10.6875H11.375C11.5573 10.6875 11.7322 10.7599 11.8611 10.8889C11.9901 11.0178 12.0625 11.1927 12.0625 11.375C12.0625 11.5573 11.9901 11.7322 11.8611 11.8611C11.7322 11.9901 11.5573 12.0625 11.375 12.0625ZM12.75 7.9375C12.75 8.30217 12.6051 8.65191 12.3473 8.90977C12.0894 9.16763 11.7397 9.3125 11.375 9.3125H3.8125C3.44783 9.3125 3.09809 9.16763 2.84023 8.90977C2.58237 8.65191 2.4375 8.30217 2.4375 7.9375V4.5C2.4375 4.13533 2.58237 3.78559 2.84023 3.52773C3.09809 3.26987 3.44783 3.125 3.8125 3.125H11.375C11.7397 3.125 12.0894 3.26987 12.3473 3.52773C12.6051 3.78559 12.75 4.13533 12.75 4.5V7.9375Z" fill="#BDBDBD"/>
<path d="M3.8125 4.5H11.3757V7.9375H3.8125V4.5Z" fill="#BDBDBD"/>
</svg>
