<svg width="23" height="23" viewBox="0 0 23 23" fill="none" xmlns="http://www.w3.org/2000/svg">
<path d="M8.54741 0H1.79153C0.803622 0 0 0.803622 0 1.79153V8.54741C0 9.53531 0.803622 10.3389 1.79153 10.3389H8.54741C9.53531 10.3389 10.3389 9.53531 10.3389 8.54741V1.79153C10.3388 0.803622 9.53531 0 8.54741 0Z" fill="#BDBDBD"/>
<path d="M20.2701 0H13.5142C12.5263 0 11.7227 0.803622 11.7227 1.79153V8.54741C11.7227 9.53531 12.5263 10.3389 13.5142 10.3389H20.2701C21.258 10.3389 22.0616 9.53531 22.0616 8.54741V1.79153C22.0616 0.803622 21.258 0 20.2701 0Z" fill="#BDBDBD"/>
<path d="M8.54741 11.7227H1.79153C0.803622 11.7227 0 12.5262 0 13.5141V20.27C0 21.2579 0.803622 22.0615 1.79153 22.0615H8.54741C9.53531 22.0615 10.3389 21.2579 10.3389 20.27V13.5141C10.3388 12.5262 9.53531 11.7227 8.54741 11.7227Z" fill="#BDBDBD"/>
<path d="M20.2701 11.7227H13.5142C12.5263 11.7227 11.7227 12.5263 11.7227 13.5142V20.2701C11.7227 21.258 12.5263 22.0616 13.5142 22.0616H20.2701C21.258 22.0615 22.0616 21.2579 22.0616 20.27V13.5141C22.0616 12.5262 21.258 11.7227 20.2701 11.7227Z" fill="#BDBDBD"/>
</svg>
