<svg width="30" height="28" viewBox="0 0 30 28" fill="none" xmlns="http://www.w3.org/2000/svg">
<path d="M13.9756 4.09769L11.2489 1.24301C10.9247 0.903396 10.4875 0.710447 10.0181 0.699724C9.54762 0.688591 9.10313 0.861677 8.76364 1.18599L0.543694 9.03738C0.204143 9.3617 0.0111936 9.79881 0.000470983 10.2683C-0.0102517 10.7377 0.162424 11.1832 0.48674 11.5226L5.80073 17.0862V7.61332C5.80073 5.6748 7.37783 4.09769 9.31635 4.09769H13.9756Z" fill="white"/>
<path d="M28.6746 4.29997L17.6562 1.50592C17.2011 1.39032 16.7282 1.45916 16.3247 1.6994C15.9213 1.93963 15.6355 2.3226 15.5202 2.77764L15.1855 4.09735H20.6841C22.6226 4.09735 24.1997 5.67446 24.1997 7.61297V25.1036C24.3858 25.0639 24.5662 24.994 24.7345 24.8938C25.1379 24.6536 25.4237 24.2706 25.5391 23.8155L29.9464 6.43594C30.1846 5.49639 29.6141 4.53821 28.6746 4.29997Z" fill="white"/>
<path d="M20.6836 5.85547H9.31641C8.34715 5.85547 7.55859 6.64402 7.55859 7.61328V25.543C7.55859 26.5122 8.34715 27.3008 9.31641 27.3008H20.6836C21.6529 27.3008 22.4414 26.5122 22.4414 25.543V7.61328C22.4414 6.64402 21.6529 5.85547 20.6836 5.85547ZM11.7188 9.13678C12.2041 9.13678 12.5977 9.53029 12.5977 10.0157C12.5977 10.5011 12.2041 10.8946 11.7188 10.8946C11.2334 10.8946 10.8398 10.5011 10.8398 10.0157C10.8398 9.53029 11.2334 9.13678 11.7188 9.13678ZM15 20.7383C14.7904 20.7383 14.5809 20.6637 14.414 20.5145L11.7932 18.17C11.7872 18.1647 11.7815 18.1594 11.7757 18.154C11.1181 17.533 10.8018 16.5939 10.9295 15.642C11.0509 14.7365 11.5666 13.9595 12.309 13.5632C12.6697 13.3712 13.0506 13.274 13.4419 13.274C14.0356 13.274 14.5782 13.5002 15 13.8791C15.4218 13.5002 15.9644 13.274 16.5581 13.274C16.9494 13.274 17.3303 13.3712 17.6903 13.5629C18.4334 13.9595 18.949 14.7365 19.0705 15.6419C19.1982 16.5939 18.8818 17.533 18.2243 18.1539C18.2185 18.1594 18.2128 18.1647 18.2068 18.1699L15.586 20.5144C15.4192 20.6637 15.2096 20.7383 15 20.7383ZM18.2812 24.0194C17.7959 24.0194 17.4023 23.626 17.4023 23.1405C17.4023 22.6551 17.7959 22.2616 18.2812 22.2616C18.7666 22.2616 19.1602 22.6551 19.1602 23.1405C19.1602 23.6259 18.7666 24.0194 18.2812 24.0194Z" fill="white"/>
</svg>
