<svg width="22" height="22" viewBox="0 0 22 22" fill="none" xmlns="http://www.w3.org/2000/svg">
<path d="M22 11C22 13.9174 20.8411 16.7153 18.7782 18.7782C16.7153 20.8411 13.9174 22 11 22C8.08262 22 5.28473 20.8411 3.22183 18.7782C1.15892 16.7153 0 13.9174 0 11C0 10.7916 0.0827803 10.5918 0.23013 10.4444C0.37748 10.2971 0.57733 10.2143 0.785714 10.2143C0.994099 10.2143 1.19395 10.2971 1.3413 10.4444C1.48865 10.5918 1.57143 10.7916 1.57143 11C1.56828 13.1042 2.26804 15.1491 3.55965 16.8103C4.85125 18.4714 6.66068 19.6536 8.70075 20.1691C10.7408 20.6846 12.8946 20.5039 14.8203 19.6558C16.746 18.8076 18.3332 17.3406 19.33 15.4875C20.3269 13.6344 20.6762 11.5014 20.3225 9.42716C19.9689 7.3529 18.9326 5.45619 17.3781 4.03807C15.8235 2.61995 13.8399 1.76168 11.7419 1.5995C9.64401 1.43732 7.55201 1.98051 5.798 3.14286H6.28571C6.4941 3.14286 6.69395 3.22564 6.8413 3.37299C6.98865 3.52034 7.07143 3.72019 7.07143 3.92858C7.07143 4.13696 6.98865 4.33681 6.8413 4.48416C6.69395 4.63151 6.4941 4.71429 6.28571 4.71429H3.92857C3.82537 4.71435 3.72318 4.69407 3.62782 4.6546C3.53247 4.61514 3.44583 4.55726 3.37286 4.48429C3.29988 4.41132 3.24201 4.32468 3.20255 4.22933C3.16308 4.13397 3.1428 4.03177 3.14286 3.92858V1.57143C3.14286 1.36305 3.22564 1.1632 3.37299 1.01585C3.52034 0.8685 3.72019 0.78572 3.92857 0.78572C4.13696 0.78572 4.33681 0.8685 4.48416 1.01585C4.63151 1.1632 4.71429 1.36305 4.71429 1.57143V1.97523C6.36333 0.825867 8.29584 0.150445 10.3018 0.0223551C12.3078 -0.105735 14.3105 0.318409 16.0924 1.24869C17.8742 2.17898 19.367 3.57983 20.4085 5.299C21.45 7.01818 22.0005 8.98994 22 11ZM18.0714 11C18.0714 12.3986 17.6567 13.7658 16.8797 14.9287C16.1027 16.0916 14.9983 16.9979 13.7061 17.5331C12.414 18.0684 10.9922 18.2084 9.62043 17.9356C8.24871 17.6627 6.9887 16.9892 5.99974 16.0003C5.01079 15.0113 4.3373 13.7513 4.06445 12.3796C3.79159 11.0078 3.93163 9.58602 4.46685 8.29389C5.00207 7.00175 5.90843 5.89735 7.07132 5.12033C8.23421 4.34331 9.6014 3.92858 11 3.92858C12.8748 3.93062 14.6723 4.6763 15.998 6.00201C17.3237 7.32772 18.0694 9.12517 18.0714 11ZM13.793 11.9177L11.7857 10.5795V7.07143C11.7857 6.86305 11.7029 6.6632 11.5556 6.51585C11.4082 6.3685 11.2084 6.28572 11 6.28572C10.7916 6.28572 10.5918 6.3685 10.4444 6.51585C10.2971 6.6632 10.2143 6.86305 10.2143 7.07143V11C10.2143 11.1293 10.2463 11.2567 10.3073 11.3707C10.3683 11.4847 10.4566 11.582 10.5642 11.6537L12.9213 13.2251C13.0947 13.3383 13.3058 13.3785 13.5086 13.3369C13.7114 13.2953 13.8897 13.1753 14.0045 13.003C14.1194 12.8308 14.1616 12.6201 14.122 12.4169C14.0824 12.2136 13.9641 12.0342 13.793 11.9177Z" fill="#BDBDBD"/>
</svg>
