<svg width="29" height="30" viewBox="0 0 29 30" fill="none" xmlns="http://www.w3.org/2000/svg">
<g clip-path="url(#clip0_0_3065)">
<path d="M21.5625 16.1194L17.244 13.1876L16.701 17.7793L19.0539 18.0756L18.8575 22.8732C18.8535 22.9687 18.8826 23.0625 18.9399 23.139C18.9971 23.2154 19.079 23.2698 19.1717 23.2928C19.2643 23.3159 19.3621 23.3062 19.4485 23.2655C19.5349 23.2247 19.6046 23.1554 19.6457 23.0692L22.0713 18.0004C22.2256 17.6778 22.259 17.3107 22.1657 16.9656C22.0723 16.6204 21.8583 16.3202 21.5625 16.1194Z" fill="#BDBDBD"/>
<path d="M7.23549 16.1195L11.5539 13.1876L12.0971 17.7794L9.74417 18.0757L9.94072 22.8736C9.94462 22.9689 9.91549 23.0627 9.85824 23.1391C9.801 23.2155 9.71916 23.2698 9.62653 23.2928C9.5339 23.3158 9.43617 23.3062 9.34983 23.2655C9.26349 23.2248 9.19384 23.1556 9.15263 23.0695L6.72692 18.0007C6.57261 17.6782 6.53906 17.311 6.63237 16.9658C6.72569 16.6206 6.93967 16.3204 7.23549 16.1195Z" fill="#BDBDBD"/>
<path d="M11.7102 4.46657C10.7707 6.24351 10.0458 8.82058 10.4746 12.3529C10.9689 16.425 11.3114 18.7016 11.5285 19.9553H17.2868C17.5039 18.7016 17.8464 16.425 18.3407 12.3529C18.7694 8.82069 18.0446 6.24351 17.1055 4.46646L11.7102 4.46657Z" fill="#BDBDBD"/>
<path d="M18.3414 12.353C17.8464 16.4248 17.5042 18.7009 17.2873 19.9557L16.2331 19.9557C16.4507 18.7013 16.7939 16.4248 17.2872 12.3531C17.7164 8.82056 16.9912 6.2436 16.0524 4.4671L17.105 4.46722C18.0454 6.24349 18.7689 8.82056 18.3414 12.353Z" fill="#C8CBD2"/>
<path d="M14.8772 1.62851C14.7466 1.51681 14.5804 1.45539 14.4085 1.45531C14.2366 1.45523 14.0704 1.51649 13.9396 1.62807C12.867 2.56931 12.0113 3.73201 11.4315 5.03599L17.3849 5.03599C16.8052 3.73221 15.9496 2.56967 14.8772 1.62851Z" fill="#BDBDBD"/>
<path d="M17.3844 5.03508H16.332C15.7611 3.75547 14.926 2.61107 13.8816 1.67699C13.9014 1.66052 13.9211 1.64417 13.9392 1.6276C14.0699 1.51614 14.2361 1.45491 14.4079 1.45491C14.5796 1.45491 14.7458 1.51614 14.8765 1.6276C15.9485 2.56924 16.804 3.73165 17.3844 5.03508Z" fill="#BDBDBD"/>
<path d="M11.4016 19.1902C11.5324 20.0096 11.6312 20.5397 11.7005 20.8761C11.732 21.0294 11.8155 21.167 11.9369 21.2658C12.0582 21.3646 12.21 21.4184 12.3665 21.4181L16.4496 21.4181C16.606 21.4183 16.7578 21.3645 16.8791 21.2657C17.0005 21.1669 17.0839 21.0292 17.1155 20.876C17.1847 20.5396 17.2833 20.0097 17.4143 19.1901L11.4016 19.1902Z" fill="#BDBDBD"/>
<path d="M17.415 19.1893C17.2835 20.01 17.1848 20.5395 17.1157 20.875C17.0847 21.0286 17.0013 21.1666 16.8798 21.2656C16.7584 21.3646 16.6063 21.4183 16.4496 21.4177H15.3972C15.5537 21.4178 15.7055 21.3639 15.8269 21.265C15.9482 21.1661 16.0317 21.0283 16.0632 20.875C16.1323 20.5395 16.231 20.01 16.3625 19.1893L17.415 19.1893Z" fill="#BDBDBD"/>
<path d="M16.4159 10.505C16.8748 9.39638 16.3481 8.12564 15.2395 7.66675C14.1308 7.20786 12.8601 7.73458 12.4012 8.84322C11.9423 9.95186 12.469 11.2226 13.5777 11.6815C14.6863 12.1404 15.9571 11.6137 16.4159 10.505Z" fill="white"/>
<path d="M16.5813 9.6788C16.5814 9.96412 16.5252 10.2467 16.4161 10.5103C16.3069 10.7739 16.1469 11.0134 15.9452 11.2152C15.7434 11.4169 15.5039 11.5769 15.2403 11.6861C14.9767 11.7952 14.6941 11.8514 14.4088 11.8513C14.2938 11.851 14.179 11.8422 14.0652 11.825C14.5754 11.7432 15.0397 11.4824 15.3749 11.0892C15.71 10.6961 15.8942 10.1963 15.8942 9.67969C15.8942 9.16304 15.71 8.6633 15.3749 8.27014C15.0397 7.87698 14.5754 7.61613 14.0652 7.53439C14.179 7.51727 14.2938 7.50848 14.4088 7.5081C14.9847 7.50794 15.5371 7.73653 15.9445 8.1436C16.352 8.55067 16.581 9.10289 16.5813 9.6788Z" fill="#384868"/>
<path d="M14.2388 22.384C14.2388 22.384 16.2049 22.1656 16.6732 23.9757C17.1414 25.7859 15.9553 26.4724 15.9553 26.4724C15.9553 26.4724 15.8201 25.7129 15.6327 25.6194C15.6327 25.6194 15.8617 28.137 13.4585 28.4595C13.4585 28.4595 13.8123 27.6688 13.4585 27.076C13.1047 26.4831 12.8864 25.8067 12.9592 25.3074C12.9554 25.4683 12.9038 25.6244 12.8111 25.756C12.7185 25.8875 12.5888 25.9886 12.4386 26.0464C12.4832 25.8949 12.4814 25.7336 12.4333 25.5833C12.3852 25.4329 12.2931 25.3005 12.1689 25.203C11.7317 24.86 12.1579 22.3635 14.2388 22.384Z" fill="#BDBDBD"/>
<path d="M14.4915 22.3806C14.4915 22.3806 13.3426 22.2529 13.069 23.3107C12.7955 24.3685 13.4889 24.7691 13.4889 24.7691C13.4889 24.7691 13.568 24.3254 13.6777 24.271C13.6777 24.271 13.5439 25.7421 14.9482 25.9306C14.9482 25.9306 14.7416 25.4685 14.9482 25.122C15.1548 24.7755 15.2825 24.3805 15.2403 24.0883C15.2426 24.1823 15.2728 24.2734 15.3269 24.3502C15.381 24.4271 15.4566 24.4861 15.5442 24.52C15.5183 24.4315 15.5196 24.3373 15.5478 24.2495C15.5759 24.1617 15.6298 24.0844 15.7023 24.0276C15.9565 23.8274 15.7073 22.3684 14.4915 22.3806Z" fill="#BDBDBD"/>
</g>
<defs>
<clipPath id="clip0_0_3065">
<rect width="20" height="20" fill="white" transform="translate(0 15) rotate(-45)"/>
</clipPath>
</defs>
</svg>
