<svg width="22" height="16" viewBox="0 0 22 16" fill="none" xmlns="http://www.w3.org/2000/svg">
<path d="M21.1279 1.89409V8.28972C21.1279 8.28972 19.7591 8.55939 19.4771 8.59486C19.196 8.63024 18.3126 8.91547 17.6724 8.30012C16.6851 7.35389 13.1773 3.86543 13.1773 3.86543C13.1773 3.86543 12.5725 3.27194 11.6014 3.78486C10.7099 4.25471 9.38845 4.9433 8.83649 5.21144C7.79306 5.76681 6.92824 4.88567 6.92824 4.21447C6.92824 3.69384 7.25312 3.34049 7.71752 3.08063C8.9761 2.31765 11.6288 0.828661 12.7337 0.241617C13.4053 -0.115572 13.8891 -0.146179 14.8112 0.630564C15.9467 1.58558 16.9573 2.45611 16.9573 2.45611C16.9573 2.45611 17.2869 2.73119 17.8125 2.6204C19.1033 2.34749 21.1279 1.89409 21.1279 1.89409ZM7.16585 12.7309C7.33573 12.2944 7.27895 11.8063 6.95326 11.4714C6.66061 11.1718 6.23334 11.0929 5.82594 11.1862C5.93989 10.7822 5.87697 10.3521 5.58274 10.0486C5.2892 9.74977 4.86274 9.66924 4.45537 9.76345C4.56847 9.35997 4.50572 8.92992 4.21132 8.6273C3.75033 8.15446 2.95296 8.17475 2.42913 8.67407C1.90808 9.17406 1.57429 10.0799 2.03933 10.6131C2.5036 11.1437 3.03706 10.8209 3.44374 10.7282C3.33061 11.1317 2.99162 11.507 3.40909 12.0351C3.82617 12.5635 4.40678 12.2429 4.81388 12.1511C4.70036 12.5531 4.37617 12.966 4.77761 13.4557C5.18267 13.9469 5.8461 13.6852 6.28429 13.5491C6.11518 13.9839 5.75321 14.4525 6.21825 14.9777C6.68257 15.5067 7.75558 15.262 8.27971 14.7619C8.80243 14.2619 8.8526 13.4694 8.39285 12.9951C8.07543 12.6697 7.60225 12.594 7.16585 12.7309ZM16.7294 9.40349C12.9406 5.61458 14.7227 7.39745 12.6837 5.35407C12.6837 5.35407 12.0709 4.74401 11.2632 5.09838C10.6963 5.34683 9.96633 5.68543 9.41709 5.94393C8.81355 6.26041 8.3792 6.35837 8.17527 6.35701C7.00851 6.34938 6.06189 5.41158 6.06189 4.24597C6.06189 3.48982 6.46333 2.8315 7.06205 2.45782C7.90398 1.8752 9.84189 0.844434 9.84189 0.844434C9.84189 0.844434 9.25152 0.0963375 7.95824 0.0963375C6.66535 0.0963375 3.96412 1.86595 3.96412 1.86595C3.96412 1.86595 3.19782 2.35678 2.10545 1.91468L0 1.1815V8.49992C0 8.49992 0.601197 8.67394 1.14139 8.89459C1.2634 8.54665 1.46026 8.22535 1.73334 7.95999C2.62953 7.10638 4.11498 7.09752 4.93035 7.93709C5.17597 8.19231 5.34739 8.49677 5.43486 8.83333C5.7634 8.93474 6.061 9.11438 6.30014 9.36078C6.5465 9.61429 6.71727 9.92045 6.80547 10.2553C7.13363 10.3568 7.43079 10.5371 7.67075 10.7837C7.94098 11.0624 8.121 11.399 8.20506 11.7636C8.5481 11.8636 8.8581 12.0495 9.10778 12.3047C9.5978 12.8081 9.77172 13.4909 9.66635 14.1496C9.6672 14.1496 9.66882 14.1496 9.66959 14.1511C9.6776 14.1616 9.97319 14.4911 10.1575 14.677C10.5188 15.0386 11.1086 15.0386 11.471 14.677C11.8309 14.3155 11.8325 13.7268 11.471 13.3636C11.458 13.3506 10.1677 12.001 10.2716 11.8963C10.3746 11.7924 12.0185 13.503 12.0491 13.5342C12.4099 13.8951 12.9994 13.8951 13.3618 13.5342C13.7233 13.1728 13.7225 12.5841 13.3618 12.2217C13.344 12.2048 13.27 12.1339 13.2426 12.1057C13.2426 12.1057 11.6127 10.6537 11.7368 10.5297C11.8623 10.4048 13.8869 12.2942 13.8902 12.2942C14.2541 12.6219 14.8147 12.6195 15.1648 12.2692C15.5054 11.9286 15.5127 11.3898 15.2107 11.0267C15.2043 11.0074 13.6678 9.40166 13.7877 9.28085C13.9094 9.15846 15.4297 10.724 15.4329 10.7272C15.7929 11.088 16.3832 11.088 16.7456 10.7272C17.1063 10.3664 17.1063 9.77696 16.7456 9.41295C16.7407 9.40988 16.7342 9.40664 16.7294 9.40349Z" fill="white"/>
</svg>
