<svg width="22" height="20" viewBox="0 0 22 20" fill="none" xmlns="http://www.w3.org/2000/svg">
<path fill-rule="evenodd" clip-rule="evenodd" d="M15.3688 7.67013C14.8179 7.5722 14.254 7.5722 13.7031 7.67013L14.536 8.25548L15.3688 7.67013Z" fill="white"/>
<path fill-rule="evenodd" clip-rule="evenodd" d="M12.5222 11.2034L14.1428 10.0641V8.94014L12.7465 7.95801C12.0505 8.24284 11.4339 8.69198 10.9492 9.26701L11.4501 10.8871L12.5222 11.2034Z" fill="white"/>
<path fill-rule="evenodd" clip-rule="evenodd" d="M11.0273 15.4531C11.4435 15.9206 11.9491 16.2998 12.5143 16.5685L12.1493 15.4531H11.0273Z" fill="white"/>
<path fill-rule="evenodd" clip-rule="evenodd" d="M12.2394 14.6678L12.8967 13.8078L12.2834 11.952L11.2149 11.6377L9.83984 12.6709C9.89198 13.3743 10.1021 14.0569 10.4547 14.6678H12.2394Z" fill="white"/>
<path fill-rule="evenodd" clip-rule="evenodd" d="M10.3799 10.0859C10.1158 10.5778 9.94275 11.1134 9.86914 11.6668L10.6812 11.0575L10.3799 10.0859Z" fill="white"/>
<path fill-rule="evenodd" clip-rule="evenodd" d="M17.3787 1.61132C16.5807 1.70231 15.7916 1.37877 15.2872 0.753703C15.1779 0.6247 14.9971 0.582555 14.8421 0.649972L5.70898 4.45366H18.8574L17.7712 1.85021C17.7079 1.69224 17.5481 1.59496 17.3787 1.61132Z" fill="white"/>
<path fill-rule="evenodd" clip-rule="evenodd" d="M14.9297 10.0641L16.5502 11.2034L17.6223 10.8891L18.1232 9.26936C17.6386 8.69419 17.0219 8.24494 16.3259 7.95996L14.9297 8.94014V10.0641H14.9297Z" fill="white"/>
<path fill-rule="evenodd" clip-rule="evenodd" d="M14.5353 13.4894H15.4519L16.014 11.7875L14.5353 10.748L13.0566 11.7875L13.6188 13.4894H14.5353Z" fill="white"/>
<path fill-rule="evenodd" clip-rule="evenodd" d="M14.5368 14.2754H13.5303L12.873 15.1354L13.4486 16.8958C14.1638 17.0686 14.9098 17.0686 15.625 16.8958L16.2006 15.1354L15.5433 14.2754H14.5368Z" fill="white"/>
<path d="M1.86808 19.1071C1.9192 19.2682 2.06993 19.3768 2.23894 19.3742L6.28535 19.3762V18.9892C6.28535 18.7722 6.46124 18.5964 6.67819 18.5964C6.89518 18.5964 7.07103 18.7723 7.07103 18.9892V19.3766L19.7575 19.3821C19.9264 19.3846 20.077 19.2762 20.1284 19.1154C20.3548 18.3455 20.9557 17.7426 21.7249 17.5137C21.8859 17.4626 21.9944 17.3121 21.992 17.1432L21.9999 7.48133C22.0027 7.31145 21.8931 7.16008 21.7308 7.10968C20.9601 6.88617 20.3569 6.28446 20.1315 5.51428C20.0803 5.35324 19.9296 5.2448 19.7606 5.24755L7.07139 5.24165V5.63213C7.07139 5.84912 6.8955 6.02497 6.67855 6.02497C6.46157 6.02497 6.28572 5.84908 6.28572 5.63213V5.2393H2.23933C2.06982 5.23694 1.9188 5.34599 1.86768 5.50762C1.64334 6.27708 1.04344 6.8798 0.275034 7.10772C0.114206 7.15903 0.00576765 7.30939 0.00790382 7.47818L4.70508e-05 17.1428C-0.00259601 17.3123 0.106349 17.4634 0.267974 17.5145C1.03743 17.7388 1.64016 18.3387 1.86808 19.1071ZM10.1994 8.93216C11.6432 7.08151 14.1024 6.35115 16.3224 7.11366C18.5423 7.87616 20.0337 9.96349 20.0357 12.3107C20.0357 12.3806 20.0357 12.4478 20.029 12.5173C19.9418 14.892 18.3375 16.9413 16.0533 17.5962L16.0474 17.5981L16.036 17.6021C15.0544 17.8807 14.0146 17.8807 13.033 17.6021L13.0236 17.5989H13.0185C10.7258 16.9417 9.11893 14.8803 9.04123 12.4965C9.03573 12.4486 9.03573 12.381 9.03573 12.3107C9.03182 11.0856 9.44189 9.89506 10.1994 8.93216ZM6.28575 7.2036C6.28575 6.98661 6.46164 6.81076 6.67859 6.81076C6.89557 6.81076 7.07143 6.98665 7.07143 7.2036V7.98931C7.07143 8.20629 6.89554 8.38215 6.67859 8.38215C6.46161 8.38215 6.28575 8.20626 6.28575 7.98931V7.2036ZM6.28575 9.56073C6.28575 9.34375 6.46164 9.1679 6.67859 9.1679C6.89557 9.1679 7.07143 9.34379 7.07143 9.56073V10.3464C7.07143 10.5634 6.89554 10.7393 6.67859 10.7393C6.46161 10.7393 6.28575 10.5634 6.28575 10.3464V9.56073ZM6.28575 11.9179C6.28575 11.7009 6.46164 11.525 6.67859 11.525C6.89557 11.525 7.07143 11.7009 7.07143 11.9179V12.7036C7.07143 12.9206 6.89554 13.0964 6.67859 13.0964C6.46161 13.0964 6.28575 12.9205 6.28575 12.7036V11.9179ZM6.28575 14.275C6.28575 14.058 6.46164 13.8821 6.67859 13.8821C6.89557 13.8821 7.07143 14.058 7.07143 14.275V15.0607C7.07143 15.2777 6.89554 15.4535 6.67859 15.4535C6.46161 15.4535 6.28575 15.2776 6.28575 15.0607V14.275ZM6.28575 16.6321C6.28575 16.4151 6.46164 16.2393 6.67859 16.2393C6.89557 16.2393 7.07143 16.4152 7.07143 16.6321V17.4178C7.07143 17.6348 6.89554 17.8107 6.67859 17.8107C6.46161 17.8107 6.28575 17.6348 6.28575 17.4178V16.6321ZM1.57147 7.59643H4.71433C4.93131 7.59643 5.10716 7.77232 5.10716 7.98927C5.10716 8.20626 4.93127 8.38211 4.71433 8.38211H1.57147C1.35449 8.38211 1.17863 8.20622 1.17863 7.98927C1.17863 7.77232 1.35452 7.59643 1.57147 7.59643ZM1.57147 9.16786H4.71433C4.93131 9.16786 5.10716 9.34375 5.10716 9.5607C5.10716 9.77768 4.93127 9.95354 4.71433 9.95354H1.57147C1.35449 9.95354 1.17863 9.77765 1.17863 9.5607C1.17863 9.34375 1.35452 9.16786 1.57147 9.16786ZM1.57147 11.525H4.71433C4.93131 11.525 5.10716 11.7009 5.10716 11.9178C5.10716 12.1348 4.93127 12.3107 4.71433 12.3107H1.57147C1.35449 12.3107 1.17863 12.1348 1.17863 11.9178C1.17863 11.7009 1.35452 11.525 1.57147 11.525ZM1.57147 13.0964H4.71433C4.93131 13.0964 5.10716 13.2723 5.10716 13.4893C5.10716 13.7062 4.93127 13.8821 4.71433 13.8821H1.57147C1.35449 13.8821 1.17863 13.7062 1.17863 13.4893C1.17863 13.2723 1.35452 13.0964 1.57147 13.0964ZM1.57147 14.6679H4.71433C4.93131 14.6679 5.10716 14.8437 5.10716 15.0607C5.10716 15.2776 4.93127 15.4535 4.71433 15.4535H1.57147C1.35449 15.4535 1.17863 15.2776 1.17863 15.0607C1.17863 14.8437 1.35452 14.6679 1.57147 14.6679ZM1.57147 16.2393H4.71433C4.93131 16.2393 5.10716 16.4152 5.10716 16.6321C5.10716 16.8491 4.93127 17.025 4.71433 17.025H1.57147C1.35449 17.025 1.17863 16.8491 1.17863 16.6321C1.17863 16.4152 1.35452 16.2393 1.57147 16.2393Z" fill="white"/>
<path fill-rule="evenodd" clip-rule="evenodd" d="M16.7871 11.952L16.1738 13.8078L16.8311 14.6678H18.6162C18.9694 14.0571 19.1798 13.3744 19.2318 12.6709L17.8568 11.6377L16.7871 11.952Z" fill="white"/>
<path fill-rule="evenodd" clip-rule="evenodd" d="M18.6912 10.085L18.3906 11.0569L19.2027 11.6662C19.1288 11.1126 18.9555 10.5769 18.6912 10.085Z" fill="white"/>
<path fill-rule="evenodd" clip-rule="evenodd" d="M16.5586 16.5681C17.1236 16.2995 17.6291 15.9204 18.0452 15.4531H16.9232L16.5586 16.5681Z" fill="white"/>
</svg>
