<svg width="22" height="22" viewBox="0 0 22 22" fill="none" xmlns="http://www.w3.org/2000/svg">
<g clip-path="url(#clip0_0_2968)">
<path d="M17.7903 6.43153L14.1582 5.90374L12.5338 2.61256C11.9067 1.34163 10.0925 1.34116 9.46511 2.61251L7.84077 5.90374L4.20867 6.43153C2.80617 6.63528 2.24521 8.36043 3.26039 9.35009L5.88861 11.912L5.26819 15.5293C5.0286 16.9261 6.4958 17.9928 7.75088 17.3331L10.9995 15.6251L14.2482 17.3331C15.5047 17.9936 16.9698 16.9229 16.7307 15.5293L16.1103 11.912L18.7386 9.35009C19.7534 8.36078 19.1933 6.63541 17.7903 6.43153Z" fill="#BDBDBD"/>
<path d="M5.78957 2.02597L4.91254 0.818892C4.67445 0.491298 4.21584 0.418638 3.88825 0.656728C3.56061 0.894774 3.488 1.35338 3.72604 1.68102L4.60308 2.88809C4.84129 3.21586 5.29994 3.28826 5.62736 3.05025C5.955 2.81225 6.02762 2.3536 5.78957 2.02597Z" fill="#BDBDBD"/>
<path d="M2.87876 12.8439C2.75359 12.4587 2.33997 12.2478 1.95472 12.3731L0.506887 12.8435C0.121716 12.9686 -0.0890455 13.3823 0.0360793 13.7676C0.161462 14.1535 0.575938 14.3634 0.96012 14.2384L2.40799 13.7679C2.79316 13.6428 3.00393 13.2291 2.87876 12.8439Z" fill="#BDBDBD"/>
<path d="M18.1118 0.65674C17.7842 0.418651 17.3256 0.491268 17.0875 0.818904L16.2104 2.02598C15.9723 2.35362 16.045 2.81226 16.3726 3.05027C16.7004 3.2884 17.1589 3.21561 17.3969 2.8881L18.274 1.68103C18.5121 1.35339 18.4394 0.894787 18.1118 0.65674Z" fill="#BDBDBD"/>
<path d="M21.494 12.8436L20.0461 12.3731C19.6609 12.2477 19.2472 12.4587 19.122 12.8439C18.9969 13.2291 19.2076 13.6428 19.5928 13.7679L21.0407 14.2384C21.4251 14.3634 21.8394 14.1533 21.9648 13.7676C22.0899 13.3824 21.8791 12.9687 21.494 12.8436Z" fill="#BDBDBD"/>
<path d="M11.0009 18.5283C10.5959 18.5283 10.2676 18.8566 10.2676 19.2616V20.75C10.2676 21.155 10.5959 21.4833 11.0009 21.4833C11.4059 21.4833 11.7342 21.155 11.7342 20.75V19.2616C11.7342 18.8566 11.4059 18.5283 11.0009 18.5283Z" fill="#BDBDBD"/>
</g>
<defs>
<clipPath id="clip0_0_2968">
<rect width="22" height="22" fill="white"/>
</clipPath>
</defs>
</svg>
