<svg width="22" height="24" viewBox="0 0 22 24" fill="none" xmlns="http://www.w3.org/2000/svg">
<path d="M10.7292 7.8963C11.2136 7.40971 11.8202 7.06275 12.4852 6.89196V1.9208C12.4852 1.41137 12.2828 0.922811 11.9226 0.56259C11.5624 0.20237 11.0738 0 10.5644 0L1.9208 0C1.41137 0 0.922811 0.20237 0.56259 0.56259C0.20237 0.922811 0 1.41137 0 1.9208V10.5644C0 11.0738 0.20237 11.5624 0.56259 11.9226C0.922811 12.2828 1.41137 12.4852 1.9208 12.4852H6.14033L10.7292 7.8963ZM8.64361 2.8812C8.83356 2.8812 9.01925 2.93753 9.17718 3.04306C9.33512 3.14859 9.45822 3.29859 9.53091 3.47408C9.6036 3.64957 9.62262 3.84267 9.58556 4.02897C9.5485 4.21527 9.45703 4.3864 9.32272 4.52071C9.1884 4.65503 9.01728 4.7465 8.83098 4.78355C8.64468 4.82061 8.45157 4.80159 8.27608 4.7289C8.10059 4.65621 7.9506 4.53311 7.84507 4.37518C7.73954 4.21724 7.68321 4.03156 7.68321 3.84161C7.68321 3.58689 7.7844 3.34261 7.96451 3.1625C8.14462 2.98239 8.3889 2.8812 8.64361 2.8812ZM8.64361 6.72281C8.83356 6.72281 9.01925 6.77914 9.17718 6.88467C9.33512 6.9902 9.45822 7.14019 9.53091 7.31568C9.6036 7.49117 9.62262 7.68428 9.58556 7.87058C9.5485 8.05688 9.45703 8.228 9.32272 8.36232C9.1884 8.49663 9.01728 8.5881 8.83098 8.62516C8.64468 8.66222 8.45157 8.6432 8.27608 8.57051C8.10059 8.49782 7.9506 8.37472 7.84507 8.21678C7.73954 8.05884 7.68321 7.87316 7.68321 7.68321C7.68321 7.4285 7.7844 7.18422 7.96451 7.00411C8.14462 6.824 8.3889 6.72281 8.64361 6.72281ZM3.84161 2.8812C4.03156 2.8812 4.21724 2.93753 4.37518 3.04306C4.53311 3.14859 4.65621 3.29859 4.7289 3.47408C4.80159 3.64957 4.82061 3.84267 4.78355 4.02897C4.7465 4.21527 4.65503 4.3864 4.52071 4.52071C4.3864 4.65503 4.21527 4.7465 4.02897 4.78355C3.84267 4.82061 3.64957 4.80159 3.47408 4.7289C3.29859 4.65621 3.14859 4.53311 3.04306 4.37518C2.93753 4.21724 2.8812 4.03156 2.8812 3.84161C2.8812 3.58689 2.98239 3.34261 3.1625 3.1625C3.34261 2.98239 3.58689 2.8812 3.84161 2.8812ZM3.84161 9.60401C3.65166 9.60401 3.46597 9.54769 3.30804 9.44216C3.1501 9.33663 3.027 9.18663 2.95431 9.01114C2.88162 8.83565 2.8626 8.64255 2.89966 8.45625C2.93672 8.26995 3.02818 8.09882 3.1625 7.96451C3.29681 7.83019 3.46794 7.73872 3.65424 7.70166C3.84054 7.66461 4.03364 7.68363 4.20914 7.75632C4.38463 7.82901 4.53462 7.9521 4.64015 8.11004C4.74568 8.26798 4.80201 8.45366 4.80201 8.64361C4.80201 8.89833 4.70082 9.14261 4.52071 9.32272C4.3406 9.50283 4.09632 9.60401 3.84161 9.60401Z" fill="#BDBDBD"/>
<path d="M20.2365 13.3292L15.3221 8.41466C15.1596 8.25162 14.9691 8.11918 14.7597 8.02365C13.5435 7.47226 12.2574 7.72605 11.4083 8.57588L6.49376 13.4898C6.33072 13.6523 6.19828 13.8428 6.10275 14.0522C5.55136 15.2684 5.80515 16.5545 6.65499 17.4037L11.5694 22.3181C11.7319 22.4812 11.9224 22.6136 12.1318 22.7092C13.348 23.2605 14.6341 23.0068 15.4832 22.1569L20.3977 17.2425C20.5608 17.0801 20.6932 16.8895 20.7887 16.6801C21.3396 15.4644 21.0859 14.1779 20.2365 13.3292ZM13.4455 16.3268C13.2556 16.3268 13.0699 16.2705 12.9119 16.1649C12.754 16.0594 12.6309 15.9094 12.5582 15.7339C12.4855 15.5584 12.4665 15.3653 12.5036 15.179C12.5406 14.9927 12.6321 14.8216 12.7664 14.6873C12.9007 14.553 13.0718 14.4615 13.2581 14.4245C13.4444 14.3874 13.6375 14.4064 13.813 14.4791C13.9885 14.5518 14.1385 14.6749 14.244 14.8328C14.3496 14.9908 14.4059 15.1765 14.4059 15.3664C14.4059 15.6211 14.3047 15.8654 14.1246 16.0455C13.9445 16.2256 13.7002 16.3268 13.4455 16.3268Z" fill="#BDBDBD"/>
</svg>
