<svg width="22" height="21" viewBox="0 0 22 21" fill="none" xmlns="http://www.w3.org/2000/svg">
<path d="M3.06641 16.5264V19.9291C3.06641 20.0514 3.16549 20.1504 3.28774 20.1504H18.7135C18.8358 20.1504 18.9349 20.0514 18.9349 19.9291V16.5264H3.06641Z" fill="#FE9901"/>
<path d="M5.11331 19.9291V16.5693H3.06641V19.9291C3.06641 20.0514 3.16549 20.1504 3.28774 20.1504H5.33464C5.2124 20.1504 5.11331 20.0514 5.11331 19.9291Z" fill="#FB8801"/>
<path d="M5.04616 6.17857C5.10404 6.20229 5.13553 6.2652 5.12316 6.32651L4.40928 9.8573L7.56813 12.1954L8.86338 8.98568L6.25264 6.02758C6.21083 5.98019 6.2064 5.90907 6.2452 5.85914C6.45356 5.59115 6.52682 5.22368 6.39822 4.87241C6.23227 4.41921 5.76107 4.13975 5.28399 4.21271C4.66803 4.30694 4.28673 4.90923 4.44344 5.49412C4.52972 5.81613 4.75986 6.0611 5.04616 6.17857Z" fill="#FEE45A"/>
<path d="M5.04612 6.17894C5.104 6.20266 5.13549 6.26557 5.12312 6.32689L4.41864 9.81118L5.02437 10.2595L5.87567 6.04922C5.88805 5.9879 5.85655 5.925 5.79867 5.90128C5.51237 5.78385 5.28223 5.53884 5.19595 5.21687C5.09471 4.83905 5.21821 4.45418 5.48423 4.20345C5.41814 4.20023 5.35119 4.20281 5.28399 4.21308C4.66803 4.30731 4.28673 4.9096 4.44344 5.49449C4.52967 5.8165 4.75982 6.06147 5.04612 6.17894Z" fill="#FEDF30"/>
<path d="M15.7463 6.02636L13.1348 8.98537L14.43 12.1951L17.5889 9.85699L16.8752 6.32758C16.8627 6.2657 16.8943 6.20198 16.9527 6.17796C17.2556 6.05348 17.4954 5.78621 17.5685 5.4361C17.6735 4.93234 17.3793 4.41903 16.8915 4.25532C16.3247 4.06514 15.7237 4.39372 15.5714 4.96237C15.4847 5.28563 15.5625 5.61417 15.7533 5.85935C15.7919 5.90889 15.7878 5.97936 15.7463 6.02636Z" fill="#FEDF30"/>
<path d="M15.7477 6.0273L13.168 8.95029L13.476 9.71351L16.5965 6.17778C16.638 6.13077 16.642 6.06026 16.6035 6.0108C16.4126 5.76562 16.3349 5.43708 16.4215 5.11382C16.5202 4.74558 16.8071 4.47823 17.151 4.38701C17.073 4.33231 16.9866 4.28771 16.8929 4.2563C16.3261 4.06612 15.7251 4.3947 15.5728 4.96335C15.4861 5.2866 15.5639 5.61514 15.7547 5.86032C15.7932 5.90982 15.7892 5.98029 15.7477 6.0273Z" fill="#FED402"/>
<path d="M20.8632 6.36898C20.3881 6.41822 20.0038 6.80099 19.9524 7.27584C19.9325 7.45949 19.9613 7.63459 20.0273 7.79005C20.067 7.88333 20.036 7.99161 19.9545 8.0519L14.4141 12.1528L16.1962 16.5688H18.9337L20.6886 8.58815C20.7119 8.48219 20.8085 8.4091 20.9169 8.41503C20.9808 8.41855 21.0463 8.4161 21.113 8.40695C21.5878 8.34181 21.9612 7.94619 21.9966 7.46825C22.0441 6.82918 21.5059 6.30234 20.8632 6.36898Z" fill="#FED402"/>
<path d="M20.8626 6.36897C20.3875 6.41822 20.0033 6.80098 19.9518 7.27583C19.932 7.45952 19.9608 7.63458 20.0268 7.79008C20.0664 7.88337 20.0354 7.99165 19.954 8.05193L14.4492 12.1264L14.6987 12.7446L20.6023 8.37497C20.6838 8.31469 20.7147 8.20641 20.6751 8.11312C20.6091 7.95762 20.5803 7.78256 20.6002 7.59887C20.6516 7.12402 21.0359 6.7413 21.511 6.69201C21.584 6.68445 21.6556 6.68488 21.7252 6.69193C21.5149 6.46527 21.2035 6.33365 20.8626 6.36897Z" fill="#FAC600"/>
<path d="M5.80336 16.5689L7.58545 12.1528L2.04501 8.05193C1.96354 7.99165 1.9326 7.88336 1.97218 7.79008C2.03818 7.63458 2.06701 7.45952 2.04711 7.27587C1.99572 6.80098 1.61137 6.41821 1.13626 6.36897C0.493406 6.30237 -0.0448639 6.82951 0.00296033 7.46889C0.0386674 7.94674 0.412152 8.34206 0.886914 8.40703C0.953473 8.41613 1.01883 8.41854 1.08264 8.41506C1.191 8.40913 1.2876 8.48218 1.31089 8.58818L3.06578 16.5689H5.80336Z" fill="#FED402"/>
<path d="M1.85771 8.09445C1.83442 7.98849 1.73778 7.9154 1.62946 7.92133C1.56565 7.92481 1.50029 7.9224 1.43373 7.91329C0.958971 7.84832 0.585486 7.45297 0.549779 6.97515C0.535083 6.7787 0.575904 6.59295 0.657931 6.43164C0.2502 6.58869 -0.0322336 6.9981 0.00295784 7.46865C0.0386649 7.94651 0.412193 8.34182 0.886912 8.40683C0.953471 8.41594 1.01883 8.41835 1.08263 8.41487C1.191 8.40894 1.2876 8.48198 1.31089 8.58799L3.06577 16.5687H3.78559L1.85771 8.09445Z" fill="#FAC600"/>
<path d="M16.2438 16.5695L11.6882 5.28046C11.6549 5.19813 11.6741 5.1039 11.7369 5.04112L12.7021 4.07592C12.7885 3.98946 12.7885 3.84934 12.7021 3.76293L11.1573 2.21816C11.0709 2.13171 10.9307 2.13171 10.8443 2.21816L9.29952 3.76293C9.21306 3.84938 9.21306 3.98951 9.29952 4.07592L10.2647 5.04112C10.3275 5.1039 10.3467 5.19813 10.3135 5.28046L5.75781 16.5695H16.2438Z" fill="#FEE45A"/>
<path d="M11.3074 5.04117L10.3422 4.07596C10.2558 3.98951 10.2558 3.84938 10.3422 3.76293L11.5222 2.58301L11.1573 2.21816C11.0709 2.13171 10.9307 2.13171 10.8443 2.21816L9.29956 3.76293C9.2131 3.84938 9.2131 3.98951 9.29956 4.07596L10.2648 5.04117C10.3275 5.10394 10.3468 5.19818 10.3135 5.2805L5.75781 16.5695H6.80054L11.3562 5.28046C11.3894 5.19813 11.3702 5.10394 11.3074 5.04117Z" fill="#FEDF30"/>
<path d="M10.8751 10.4555L9.58963 12.2386C9.55121 12.2919 9.55083 12.3637 9.58864 12.4174L10.8741 14.2419C10.9355 14.329 11.0645 14.329 11.1258 14.2419L12.4113 12.4174C12.4491 12.3637 12.4487 12.2919 12.4103 12.2386L11.1249 10.4555C11.0635 10.3703 10.9365 10.3703 10.8751 10.4555Z" fill="#925CB4"/>
<path d="M10.6642 12.4174C10.6264 12.3637 10.6268 12.2919 10.6652 12.2386L11.5378 11.0283L11.1249 10.4555C11.0635 10.3703 10.9365 10.3703 10.8751 10.4555L9.58963 12.2386C9.55121 12.2919 9.55083 12.3637 9.58864 12.4174L10.8741 14.2419C10.9355 14.329 11.0645 14.329 11.1258 14.2419L11.5378 13.6572L10.6642 12.4174Z" fill="#814BA2"/>
<path d="M5.19922 18.6201C5.3772 18.6201 5.52149 18.4758 5.52149 18.2979C5.52149 18.1199 5.3772 17.9756 5.19922 17.9756C5.02124 17.9756 4.87695 18.1199 4.87695 18.2979C4.87695 18.4758 5.02124 18.6201 5.19922 18.6201Z" fill="#FED402"/>
<path d="M7.51953 18.6201C7.69751 18.6201 7.8418 18.4758 7.8418 18.2979C7.8418 18.1199 7.69751 17.9756 7.51953 17.9756C7.34155 17.9756 7.19727 18.1199 7.19727 18.2979C7.19727 18.4758 7.34155 18.6201 7.51953 18.6201Z" fill="#FED402"/>
<path d="M9.83984 18.6201C10.0178 18.6201 10.1621 18.4758 10.1621 18.2979C10.1621 18.1199 10.0178 17.9756 9.83984 17.9756C9.66186 17.9756 9.51758 18.1199 9.51758 18.2979C9.51758 18.4758 9.66186 18.6201 9.83984 18.6201Z" fill="#FED402"/>
<path d="M12.1602 18.6201C12.3381 18.6201 12.4824 18.4758 12.4824 18.2979C12.4824 18.1199 12.3381 17.9756 12.1602 17.9756C11.9822 17.9756 11.8379 18.1199 11.8379 18.2979C11.8379 18.4758 11.9822 18.6201 12.1602 18.6201Z" fill="#FED402"/>
<path d="M14.4805 18.6201C14.6585 18.6201 14.8027 18.4758 14.8027 18.2979C14.8027 18.1199 14.6585 17.9756 14.4805 17.9756C14.3025 17.9756 14.1582 18.1199 14.1582 18.2979C14.1582 18.4758 14.3025 18.6201 14.4805 18.6201Z" fill="#FED402"/>
<path d="M16.8008 18.6201C16.9788 18.6201 17.123 18.4758 17.123 18.2979C17.123 18.1199 16.9788 17.9756 16.8008 17.9756C16.6228 17.9756 16.4785 18.1199 16.4785 18.2979C16.4785 18.4758 16.6228 18.6201 16.8008 18.6201Z" fill="#FED402"/>
<path d="M7.50059 0.0940694C7.72777 0.746035 7.9928 1.01107 8.64476 1.23824C8.77019 1.28194 8.77019 1.45884 8.64476 1.50254C7.9928 1.72972 7.72777 1.99475 7.50059 2.64672C7.45689 2.77214 7.27999 2.77214 7.23629 2.64672C7.00911 1.99475 6.74408 1.72972 6.09212 1.50254C5.96669 1.45884 5.96669 1.28194 6.09212 1.23824C6.74408 1.01107 7.00911 0.746035 7.23629 0.0940694C7.27999 -0.0313565 7.45689 -0.0313565 7.50059 0.0940694Z" fill="#FE9901"/>
<path d="M6.68418 0.945312C6.5295 1.06081 6.3385 1.15212 6.09212 1.23797C5.96669 1.28167 5.96669 1.45857 6.09212 1.50227C6.74408 1.72945 7.00911 1.99448 7.23629 2.64645C7.27999 2.77187 7.45689 2.77187 7.50059 2.64645C7.58537 2.40316 7.67543 2.21388 7.78887 2.06022C7.56711 1.43245 7.3056 1.1678 6.68418 0.945312Z" fill="#FB8801"/>
<path d="M14.8072 1.29036C15.0344 1.94232 15.2994 2.20736 15.9514 2.43453C16.0768 2.47823 16.0768 2.65513 15.9514 2.69883C15.2994 2.92601 15.0344 3.19104 14.8072 3.84301C14.7635 3.96843 14.5866 3.96843 14.5429 3.84301C14.3158 3.19104 14.0507 2.92601 13.3988 2.69883C13.2733 2.65513 13.2733 2.47823 13.3988 2.43453C14.0507 2.20736 14.3158 1.94232 14.5429 1.29036C14.5867 1.16493 14.7635 1.16493 14.8072 1.29036Z" fill="#FE9901"/>
<path d="M14.0123 2.125C13.8538 2.24849 13.657 2.34487 13.3988 2.43481C13.2733 2.4785 13.2733 2.65541 13.3988 2.69911C14.0507 2.92628 14.3158 3.19131 14.5429 3.84328C14.5866 3.96871 14.7635 3.96871 14.8072 3.84328C14.8954 3.59037 14.9895 3.39619 15.1094 3.23935C14.8884 2.61261 14.6284 2.34715 14.0123 2.125Z" fill="#FB8801"/>
</svg>
